<?xml version="1.0" encoding="UTF-8"?>
<svg version="1.1" xmlns="http://www.w3.org/2000/svg" width="3768" height="1120">
<path d="M0 0 C1243.44 0 2486.88 0 3768 0 C3768 369.6 3768 739.2 3768 1120 C2524.56 1120 1281.12 1120 0 1120 C0 750.4 0 380.8 0 0 Z " fill="#FEFEFE" transform="translate(0,0)"/>
<path d="M0 0 C0.5000303 3.45159807 0.65332539 6.56117876 0 10 C-1.72710742 12.10504951 -3.60413855 13.5314864 -5.7734375 15.171875 C-16.58199531 24.04626983 -20.69447191 38.81093116 -23.54150391 51.91748047 C-23.85215574 53.32848163 -24.18866425 54.73399299 -24.54833984 56.13330078 C-26.30751343 63.5499766 -26.30385759 70.93667489 -26.26074219 78.51171875 C-26.25008613 80.73205298 -26.2606545 82.9515663 -26.2734375 85.171875 C-26.29612896 108.32665555 -22.14368561 135.96058224 -5.25 153.125 C-2.36654879 155.90952349 -2.36654879 155.90952349 1 158 C1 161.3 1 164.6 1 168 C-5.92298075 167.48335965 -12.30767819 166.30563478 -19.01953125 164.5234375 C-23.3949914 163.75500806 -25.78473072 164.17184502 -29.46484375 166.6796875 C-36.17345456 172.63583169 -41.94466728 178.80816504 -43.5 187.93359375 C-43.75280577 193.75602664 -43.01925938 197.5462261 -39 202 C-29.27082764 212.02399576 -13.18705439 211.09725832 -0.3203125 211.4296875 C2.16277325 211.50347576 4.64584578 211.57770986 7.12890625 211.65234375 C10.97141492 211.76440277 14.81391492 211.87339893 18.65673828 211.97412109 C92.46161521 213.94237916 92.46161521 213.94237916 114 234 C114.598125 234.54527344 115.19625 235.09054687 115.8125 235.65234375 C127.80156557 247.88226109 131.38294868 263.76966682 131.29907227 280.26586914 C130.77392404 304.60524966 121.42021328 325.33735445 104.15209961 342.38964844 C95.14694246 350.88130233 81.72403867 361 69 361 C67.74523116 358.93332191 66.95135713 357.59244523 67.15234375 355.14453125 C68.3401499 352.13943643 70.25099485 350.61426907 72.625 348.4375 C84.61394994 336.7047242 91.51997329 322.0359754 91.75 305.25 C91.62640455 294.98788814 89.13614727 288.1157611 82.625 280.0625 C63.98102011 265.41365866 37.82677963 267.71792443 15.25 267.4375 C-45.97256636 266.57897666 -45.97256636 266.57897666 -65 252 C-65.62519531 251.53851562 -66.25039062 251.07703125 -66.89453125 250.6015625 C-74.47498012 244.62308213 -79.44942052 236.55104837 -81 227 C-82.21394401 209.33037053 -78.82499091 195.17626525 -67.24609375 181.49609375 C-58.90695177 172.22876901 -50.30103912 164.93252414 -40 158 C-42.50923779 155.9908078 -45.02003915 153.984178 -47.54296875 151.9921875 C-65.16770744 137.88198311 -79.72886399 120.51885624 -82.75390625 97.34765625 C-84.70682946 70.78170085 -78.82885202 47.70495055 -61.3125 27.25 C-46.13218645 11.29422152 -22.32248292 -0.53148769 0 0 Z " fill="#020202" transform="translate(3568,461)"/>
<path d="M0 0 C1.15822266 0.02707031 1.15822266 0.02707031 2.33984375 0.0546875 C2.90832031 0.07789063 3.47679687 0.10109375 4.0625 0.125 C4.55078125 5.984375 4.55078125 5.984375 4.0625 8.125 C2.42398429 9.49277989 0.75272731 10.82166306 -0.9375 12.125 C-15.74990299 32.07124721 -17.99898373 55.2551302 -18.25390625 79.2890625 C-18.27451733 80.93387321 -18.29551476 82.57867913 -18.31687927 84.22348022 C-18.37167155 88.52069168 -18.42126694 92.81794747 -18.46972656 97.11523438 C-18.52916566 102.28835318 -18.59515425 107.46139221 -18.66002655 112.63444519 C-18.75749574 120.46458078 -18.84672034 128.29477114 -18.9375 136.125 C2.1825 136.125 23.3025 136.125 45.0625 136.125 C43.7425 142.725 42.4225 149.325 41.0625 156.125 C21.2625 156.125 1.4625 156.125 -18.9375 156.125 C-18.9375 225.095 -18.9375 294.065 -18.9375 365.125 C-37.7475 365.62 -37.7475 365.62 -56.9375 366.125 C-60.5675 369.095 -64.1975 372.065 -67.9375 375.125 C-73.49847561 379.125 -73.49847561 379.125 -75.9375 379.125 C-75.9375 305.535 -75.9375 231.945 -75.9375 156.125 C-86.8275 156.125 -97.7175 156.125 -108.9375 156.125 C-107.9375 147.125 -107.9375 147.125 -104.9375 136.125 C-95.3675 136.125 -85.7975 136.125 -75.9375 136.125 C-75.98970703 131.69126953 -75.98970703 131.69126953 -76.04296875 127.16796875 C-76.06651084 124.23527996 -76.08464347 121.30260256 -76.10229492 118.36987305 C-76.11717939 116.36559163 -76.13749353 114.36134154 -76.16381836 112.35717773 C-76.58791342 79.18629131 -70.19431932 47.2544154 -47.1015625 22.18359375 C-43.06167959 18.34060044 -38.55535719 15.22858201 -33.9375 12.125 C-33.28136719 11.65191406 -32.62523437 11.17882812 -31.94921875 10.69140625 C-23.44882119 4.84852056 -10.37911545 -0.3193574 0 0 Z " fill="#010101" transform="translate(169.9375,330.875)"/>
<path d="M0 0 C0.2934921 3.05231785 0.43764884 5.95754961 0 9 C-2.375 11.3125 -2.375 11.3125 -5 13 C-6.31165257 15.11660427 -6.31165257 15.11660427 -7 17 C-7.66 17 -8.32 17 -9 17 C-9.18175781 17.65226562 -9.36351562 18.30453125 -9.55078125 18.9765625 C-10.97466596 23.92730011 -12.49407234 28.46546423 -15 33 C-15.66 33 -16.32 33 -17 33 C-17.46748309 35.65640389 -17.91314172 38.31456818 -18.34057617 40.9777832 C-18.77239618 43.66452656 -19.248838 46.3387272 -19.74804688 49.01367188 C-22.72344559 66.02681918 -22.55655906 83.14055958 -22.66955566 100.3548584 C-22.70517292 105.23296843 -22.76192403 110.11087704 -22.81494904 114.98882294 C-22.89243081 122.32585255 -22.94381212 129.66263792 -23 137 C-1.55 137 19.9 137 42 137 C40.68 143.6 39.36 150.2 38 157 C18.2 157 -1.6 157 -22 157 C-22 225.97 -22 294.94 -22 366 C-40.81 366.495 -40.81 366.495 -60 367 C-63.96 370.3 -67.92 373.6 -72 377 C-76 380 -76 380 -79 380 C-79 306.41 -79 232.82 -79 157 C-89.89 157 -100.78 157 -112 157 C-111 147 -111 147 -108 137 C-98.43 137 -88.86 137 -79 137 C-79.03480469 133.82761719 -79.06960938 130.65523437 -79.10546875 127.38671875 C-79.12899867 124.2455332 -79.14713834 121.10435821 -79.16479492 117.96313477 C-79.17969617 115.81334901 -79.20002414 113.66359261 -79.22631836 111.51391602 C-79.59855338 80.25347311 -75.01852453 49.77850863 -53 26 C-52.24203125 25.15050781 -51.4840625 24.30101562 -50.703125 23.42578125 C-46.17583465 18.59519204 -41.38767001 14.62398133 -35.875 11 C-35.31337158 10.62601074 -34.75174316 10.25202148 -34.1730957 9.86669922 C-29.86837248 7.16694687 -25.90834675 6.03107503 -21 5 C-21 4.34 -21 3.68 -21 3 C-18.43850372 2.49432271 -15.87600535 1.99529868 -13.3125 1.5 C-12.59126953 1.35691406 -11.87003906 1.21382813 -11.12695312 1.06640625 C-7.36158641 0.34428113 -3.85526187 -0.1824976 0 0 Z " fill="#010101" transform="translate(1086,330)"/>
<path d="M0 0 C0 120.78 0 241.56 0 366 C-12.21 366.33 -24.42 366.66 -37 367 C-44.55585443 371.62240506 -48.43517731 374.03425348 -54 380 C-54.99 380.33 -55.98 380.66 -57 381 C-57 270.45 -57 159.9 -57 46 C-58.32 45.34 -59.64 44.68 -61 44 C-64.23892566 41.18339601 -67.22153408 38.10279586 -70.25 35.0625 C-71.09046875 34.23814453 -71.9309375 33.41378906 -72.796875 32.56445312 C-73.5909375 31.77103516 -74.385 30.97761719 -75.203125 30.16015625 C-75.93176758 29.43449463 -76.66041016 28.70883301 -77.41113281 27.96118164 C-79 26 -79 26 -79 23 C-70.68971642 19.78716898 -62.22905117 17.24632711 -53.67773438 14.77880859 C-49.52377498 13.57064571 -45.37865666 12.33299898 -41.23242188 11.09863281 C-31.49723385 8.20210042 -21.75702325 5.32218721 -12 2.5 C-11.12827148 2.24484619 -10.25654297 1.98969238 -9.35839844 1.72680664 C-8.55950195 1.49727295 -7.76060547 1.26773926 -6.9375 1.03125 C-6.24527344 0.83080078 -5.55304688 0.63035156 -4.83984375 0.42382812 C-3 0 -3 0 0 0 Z " fill="#010101" transform="translate(1475,330)"/>
<path d="M0 0 C0 121.11 0 242.22 0 367 C-18.81 367.495 -18.81 367.495 -38 368 C-46.415 371.96 -46.415 371.96 -55 376 C-55.66 376 -56.32 376 -57 376 C-56.99907821 375.30899971 -56.99815641 374.61799943 -56.99720669 373.90605974 C-56.9435923 332.95490147 -56.93159244 292.00391519 -56.97365963 251.05273798 C-56.97867429 246.13607038 -56.98334112 241.21940251 -56.98779297 236.30273438 C-56.9886851 235.32391121 -56.98957723 234.34508805 -56.9904964 233.33660358 C-57.00411361 217.4860306 -56.98955208 201.63560234 -56.96458304 185.78504854 C-56.93959088 169.52179574 -56.94486616 153.25875603 -56.97825909 136.99551725 C-56.99791125 126.95948176 -56.99393386 116.92402607 -56.95976371 106.88802713 C-56.93859546 100.00663555 -56.94681836 93.12567071 -56.97815877 86.2443195 C-56.99537566 82.27342059 -56.99962837 78.30362135 -56.96898079 74.33277893 C-56.9411898 70.69495308 -56.95042232 67.0591424 -56.98874104 63.42142957 C-56.99959309 61.48672923 -56.97114786 59.55193074 -56.94117641 57.61743212 C-57.04346004 51.51321413 -57.42031344 47.84334536 -61.8046875 43.38817596 C-63.17763394 42.22792953 -64.57634102 41.09742827 -66 40 C-67.3802838 38.79770591 -68.75602798 37.59015845 -70.125 36.375 C-70.77726562 35.81039062 -71.42953125 35.24578125 -72.1015625 34.6640625 C-74.89508034 32.21542341 -77.49836839 29.75179477 -80 27 C-80 26.01 -80 25.02 -80 24 C-45.96092666 13.19846302 -45.96092666 13.19846302 -28.85839844 8.29614258 C-22.11636064 6.35462145 -15.46066552 4.23187327 -8.828125 1.9453125 C-3.00826446 0 -3.00826446 0 0 0 Z " fill="#010101" transform="translate(1603,329)"/>
<path d="M0 0 C0 120.45 0 240.9 0 365 C-11.55 365.33 -23.1 365.66 -35 366 C-42.35572066 370.57012231 -46.44361902 373.18480652 -52 379 C-52.66 379 -53.32 379 -54 379 C-53.99566072 378.29722569 -53.99132145 377.59445138 -53.98685068 376.87038088 C-53.73157454 335.1756844 -53.5653617 293.48145521 -53.51407167 251.78598472 C-53.50783028 246.77447712 -53.50084823 241.7629708 -53.4934082 236.75146484 C-53.49193954 235.75380586 -53.49047088 234.75614688 -53.48895771 233.72825581 C-53.46344334 217.59497699 -53.37799185 201.46254806 -53.27020787 185.32963306 C-53.16087023 168.76344991 -53.1163647 152.19799734 -53.13146263 135.6314559 C-53.13874602 125.41643021 -53.09606561 115.20416345 -52.9885155 104.98969078 C-52.91951873 97.97568068 -52.91376233 90.96335219 -52.95664638 83.94914198 C-52.9795258 79.90691571 -52.97557467 75.86967058 -52.89613152 71.82805061 C-52.02283422 54.14136426 -52.02283422 54.14136426 -58.81450081 38.51020813 C-62.80240103 34.39804644 -67.16460858 31.0501093 -72 28 C-72.99 27.34 -73.98 26.68 -75 26 C-75 24.68 -75 23.36 -75 22 C-69.37422812 19.32106101 -63.60641815 17.68832058 -57.59765625 16.0625 C-55.06153185 15.31350343 -52.69400716 14.52409249 -50.2421875 13.5703125 C-45.27915882 11.66491214 -40.18335326 10.28740443 -35.0625 8.875 C-33.17755073 8.3545763 -31.29338672 7.83129701 -29.41015625 7.3046875 C-28.58652588 7.07765137 -27.76289551 6.85061523 -26.91430664 6.61669922 C-25.01267319 6.16474679 -25.01267319 6.16474679 -24 5 C-22.52825321 4.67294516 -21.04685628 4.38898848 -19.5625 4.125 C-14.99084161 3.2592053 -10.6436974 2.03913172 -6.2265625 0.5859375 C-4 0 -4 0 0 0 Z " fill="#010101" transform="translate(2578,331)"/>
<path d="M0 0 C0.00238835 1.21368319 0.00477671 2.42736637 0.00723743 3.67782784 C0.06468379 32.53342531 0.13747552 61.38895709 0.22898628 90.24446572 C0.2402535 93.80148591 0.25139211 97.3585065 0.26245117 100.91552734 C0.26465486 101.62362131 0.26685854 102.33171528 0.269129 103.06126665 C0.30443415 114.50401572 0.32933648 125.94676473 0.35034702 137.38954796 C0.37216326 149.14404791 0.40526857 160.89847761 0.44870156 172.65291774 C0.47259266 179.24967343 0.49134844 185.84635164 0.49761391 192.44314957 C0.50368328 198.65983988 0.52375026 204.87633209 0.55427551 211.09294891 C0.56302604 213.36721035 0.56678455 215.64149772 0.56500816 217.9157753 C0.52483796 245.64135077 0.52483796 245.64135077 13.2578125 269.53515625 C21.66449118 276.603552 30.99171501 278.22066295 41.74951172 277.38623047 C49.41285425 276.07104194 56.63916179 271.24055881 63 267 C64.98 268.485 64.98 268.485 67 270 C66.19882984 276.43225189 62.12661762 280.26147886 58 285 C57.19369141 285.93392578 57.19369141 285.93392578 56.37109375 286.88671875 C44.76022435 299.37058585 28.08902264 307.65746486 10.984375 308.30078125 C9.23968753 308.32024548 7.49475982 308.32374304 5.75 308.3125 C4.82904541 308.30686035 3.90809082 308.3012207 2.95922852 308.29541016 C-13.75598749 307.99925424 -27.48970224 302.64375832 -39.37109375 290.85546875 C-55.17239381 273.69239246 -56.17334606 250.93259045 -56.11352539 228.86816406 C-56.11324262 227.38858034 -56.113403 225.90899648 -56.1139679 224.42941284 C-56.11425238 220.45089891 -56.10841252 216.47241573 -56.10139394 212.49390888 C-56.09510186 208.32192965 -56.094552 204.14994955 -56.09336853 199.97796631 C-56.09027236 192.0947649 -56.08208229 184.21157751 -56.07201904 176.32838225 C-56.0608044 167.34641465 -56.05533402 158.36444634 -56.05032361 149.38247347 C-56.03989808 130.92163943 -56.02157414 112.4608246 -56 94 C-66.23 94 -76.46 94 -87 94 C-85.86861314 83.81751825 -85.86861314 83.81751825 -84.5 79 C-84.2421875 78.071875 -83.984375 77.14375 -83.71875 76.1875 C-83 74 -83 74 -82 73 C-80.07332493 72.91251793 -78.14348139 72.89302666 -76.21484375 72.90234375 C-74.46010742 72.90717773 -74.46010742 72.90717773 -72.66992188 72.91210938 C-70.82237305 72.92467773 -70.82237305 72.92467773 -68.9375 72.9375 C-67.08415039 72.94426758 -67.08415039 72.94426758 -65.19335938 72.95117188 C-62.12885883 72.96300392 -59.06445279 72.97948827 -56 73 C-56.06807861 72.02240723 -56.13615723 71.04481445 -56.20629883 70.03759766 C-56.44378159 66.36765828 -56.59154698 62.6983711 -56.71411133 59.02294922 C-56.77901699 57.441055 -56.86739851 55.85992666 -56.98071289 54.28076172 C-57.86710632 41.59851734 -57.86710632 41.59851734 -54.81399536 37.34939575 C-51.33089297 33.86571794 -47.23292504 31.46902767 -43 29 C-41.53610367 27.96875197 -40.08190998 26.92336732 -38.64453125 25.85546875 C-37.36904278 24.96348699 -36.09170406 24.07414495 -34.8125 23.1875 C-27.84503531 18.31566462 -20.93867222 13.36553904 -14.0637207 8.36401367 C-2.53835993 0 -2.53835993 0 0 0 Z " fill="#010101" transform="translate(888,394)"/>
<path d="M0 0 C0.00423194 1.18037244 0.00846388 2.36074488 0.01282406 3.57688618 C0.11359928 31.62540723 0.21932741 59.67390647 0.33111694 87.72238581 C0.34488576 91.1781236 0.35861297 94.63386155 0.37231445 98.08959961 C0.37504276 98.77754621 0.37777106 99.4654928 0.38058204 100.17428627 C0.42460193 111.29897131 0.46525452 122.42366623 0.50465261 133.54836849 C0.54518375 144.97173238 0.58942811 156.39507639 0.63687855 167.81841391 C0.66339911 174.23117374 0.68824988 180.64393013 0.70907402 187.0567112 C0.72874125 193.09685669 0.75291439 199.13696766 0.78049088 205.17708206 C0.78980813 207.38972149 0.79750221 209.60236847 0.80341911 211.81501961 C0.81177153 214.84589948 0.82607229 217.87669756 0.84178162 220.907547 C0.84275972 221.7743148 0.84373783 222.6410826 0.84474558 223.53411609 C0.90470576 232.58728062 1.3681192 241.47377939 4.1875 250.125 C4.40744629 250.80804199 4.62739258 251.49108398 4.85400391 252.19482422 C8.07844346 261.70545217 13.36317481 269.35201903 22.28125 274.25390625 C31.0730883 278.24640244 38.65565079 278.09768061 47.6875 274.875 C53.09629715 272.62241026 57.60501938 269.86386513 62 266 C64.42347813 266.93812056 65.71926491 267.44689213 66.91796875 269.80859375 C67.14535136 275.88295778 61.20247592 281.69111028 57.3515625 285.8828125 C42.33849415 300.72647368 24.24683695 307.40960076 3.27026367 307.37036133 C-12.54340242 307.00042363 -26.24165403 301.30150433 -37.71484375 290.41015625 C-52.85934549 274.43723733 -55.50860917 253.93180029 -55.34057617 232.84155273 C-55.33972677 231.3119712 -55.34021112 229.78238845 -55.34190369 228.25280762 C-55.34275288 224.16085816 -55.32530493 220.06918079 -55.30418181 215.97729373 C-55.28523229 211.67856708 -55.28365036 207.37983193 -55.28010559 203.08106995 C-55.27083816 194.96777882 -55.24629742 186.85461119 -55.21605712 178.74137408 C-55.18234646 169.49328939 -55.16598551 160.24519832 -55.15097082 150.99706733 C-55.11974212 131.99796098 -55.06479772 112.99902357 -55 94 C-65.23 94 -75.46 94 -86 94 C-85 85 -85 85 -81 73 C-72.42 73 -63.84 73 -55 73 C-55.17402344 69.45765625 -55.17402344 69.45765625 -55.3515625 65.84375 C-55.42974784 63.53366501 -55.49034728 61.22373208 -55.54931641 58.91308594 C-55.59934425 57.31800447 -55.66739914 55.72337567 -55.75439453 54.12988281 C-56.45764088 40.9088515 -56.45764088 40.9088515 -52.88549805 36.23095703 C-50.34547935 34.18779157 -47.84724652 32.57755378 -45 31 C-43.5108681 29.97262974 -42.03002169 28.93300925 -40.5625 27.875 C-39.74394531 27.31167969 -38.92539063 26.74835938 -38.08203125 26.16796875 C-33.92145847 23.2413301 -29.83900408 20.21299269 -25.75 17.1875 C-13.71488092 8.30155857 -13.71488092 8.30155857 -7.9375 4.125 C-7.36032227 3.7024292 -6.78314453 3.2798584 -6.18847656 2.84448242 C-2.23146129 0 -2.23146129 0 0 0 Z " fill="#010101" transform="translate(3023,395)"/>
<path d="M0 0 C0.57972808 3.1562973 0.73704874 5.85997042 0 9 C-2.00992989 11.06352802 -4.18430421 12.52099021 -6.55859375 14.1484375 C-17.30378171 22.29758805 -22.63783867 37.85380516 -26.3125 50.375 C-26.55492432 51.18751221 -26.79734863 52.00002441 -27.04711914 52.8371582 C-31.00277288 67.13815293 -31.41281284 81.7648965 -31.375 96.5 C-31.3737915 97.37507202 -31.37258301 98.25014404 -31.37133789 99.1517334 C-31.25990169 128.97994191 -26.23030309 158.82820639 -4.5625 181 C10.07740951 194.86724762 27.69639621 199.66813381 47.3671875 199.3125 C64.39561376 198.62378711 79.08974693 192.20589765 91 180 C93.08872957 177.71910731 95.05421202 175.4066325 97 173 C99.9719385 174.12451727 102.33440687 175.22293791 105 177 C100.79277401 188.586392 93.00565672 198.80169423 85 208 C84.19369141 209.02287109 84.19369141 209.02287109 83.37109375 210.06640625 C72.50675833 223.54471711 55.71996521 233.72354736 39 238 C38.3090625 238.20238281 37.618125 238.40476562 36.90625 238.61328125 C13.43811081 244.52050122 -14.82075419 238.09072245 -35.3671875 226.28515625 C-56.15156453 213.63644143 -69.12710599 193.12571978 -78 171 C-78.26071289 170.3704541 -78.52142578 169.7409082 -78.79003906 169.09228516 C-80.88595763 163.83403412 -82.07345472 158.55215909 -83.125 153 C-83.29386719 152.14921875 -83.46273437 151.2984375 -83.63671875 150.421875 C-85.55542788 140.57149428 -86.18642327 131.08851167 -86.18530273 121.06640625 C-86.18747409 118.90083698 -86.20563556 116.73579105 -86.22460938 114.5703125 C-86.35939193 82.00870574 -75.51744231 49.96448797 -53 26 C-39.04409525 12.30786664 -20.19064435 0 0 0 Z " fill="#020202" transform="translate(2809,462)"/>
<path d="M0 0 C1.50349933 1.15653795 2.98516893 2.34232594 4.4375 3.5625 C5.38496094 4.34367187 5.38496094 4.34367187 6.3515625 5.140625 C18.09016802 15.79328023 22.92783371 32.22358791 24.4375 47.5625 C24.5216436 50.14729758 24.55957064 52.73390221 24.55775452 55.32006836 C24.55860894 56.05785963 24.55946337 56.7956509 24.56034368 57.55579948 C24.5619784 60.00467303 24.55651031 62.45347662 24.55102539 64.90234375 C24.55074306 66.66704812 24.55090215 68.43175261 24.5514679 70.19645691 C24.55175407 74.97063466 24.54588635 79.74478715 24.53889394 84.51895905 C24.53263052 89.51442841 24.53205424 94.5098984 24.53086853 99.50537109 C24.52776402 108.95763191 24.5195625 118.40988113 24.50951904 127.86213684 C24.49833056 138.62632396 24.49284056 149.39051165 24.48782361 160.15470314 C24.47737915 182.29064334 24.45904462 204.42656763 24.4375 226.5625 C5.9575 226.5625 -12.5225 226.5625 -31.5625 226.5625 C-31.57708252 221.3846582 -31.59166504 216.20681641 -31.60668945 210.87207031 C-31.65705548 193.75300321 -31.72350507 176.63402633 -31.79821491 159.51504898 C-31.84311389 149.13715889 -31.88254211 138.75930267 -31.90893555 128.38134766 C-31.93196345 119.3322551 -31.96541484 110.28327024 -32.01120156 101.23426318 C-32.03506925 96.44621117 -32.05384024 91.6582654 -32.06011391 86.87015533 C-32.06619406 82.3557267 -32.0862989 77.84156967 -32.11677551 73.3272419 C-32.12550901 71.67781783 -32.12928814 70.0283582 -32.12750816 68.37891197 C-32.11745921 54.75989791 -32.88771276 40.67584651 -42.75 30.25 C-52.28055202 24.53166879 -61.69460902 22.63727324 -72.69140625 25.328125 C-77.85392801 27.09813246 -82.16070773 29.3712006 -86.5625 32.5625 C-88.0475 33.0575 -88.0475 33.0575 -89.5625 33.5625 C-87.93194099 20.3493494 -80.75096655 10.83766915 -70.5625 2.5625 C-49.80058872 -12.87519881 -21.61848566 -14.39061847 0 0 Z " fill="#020202" transform="translate(2042.5625,469.4375)"/>
<path d="M0 0 C14.51576141 12.65939405 20.8289422 29.9813754 22.19921875 48.91796875 C22.3419625 54.67473183 22.32581923 60.42954789 22.31274414 66.18774414 C22.31246173 67.93289183 22.31262105 69.67803964 22.31318665 71.42318726 C22.31347253 76.13945655 22.30760963 80.85570019 22.30061269 85.57196355 C22.29434431 90.50870333 22.2937726 95.44544375 22.29258728 100.38218689 C22.28948422 109.72108338 22.28128468 119.05996812 22.27123779 128.39885944 C22.26004477 139.03489804 22.25455817 149.67093722 22.24954236 160.30698025 C22.23910119 182.17731777 22.22076849 204.04763917 22.19921875 225.91796875 C3.71921875 225.91796875 -14.76078125 225.91796875 -33.80078125 225.91796875 C-33.81536377 220.81118652 -33.82994629 215.7044043 -33.8449707 210.44287109 C-33.89536607 193.54733509 -33.96182138 176.65189023 -34.03649616 159.75644493 C-34.08136958 149.51537483 -34.12080356 139.27433885 -34.1472168 129.03320312 C-34.17026553 120.10201805 -34.20373982 111.17094172 -34.24948281 102.23984301 C-34.27332265 97.51544332 -34.29211175 92.79115072 -34.29839516 88.06669235 C-34.30448809 83.60971081 -34.32463788 79.15300291 -34.35505676 74.69612312 C-34.36377009 73.07011511 -34.36757368 71.44407123 -34.36578941 69.81804085 C-34.35522323 55.73170512 -34.74296351 39.18783432 -45.17578125 28.48046875 C-51.68825378 24.603997 -56.66701059 23.39099874 -64.17578125 23.48046875 C-65.01488037 23.48369141 -65.85397949 23.48691406 -66.71850586 23.49023438 C-72.9545266 23.63106537 -77.3558756 24.75002364 -82.80078125 27.91796875 C-83.46078125 27.91796875 -84.12078125 27.91796875 -84.80078125 27.91796875 C-85.9920904 17.21273239 -85.9920904 17.21273239 -83.4765625 12.3671875 C-63.74469483 -10.92220768 -25.0871831 -19.4477502 0 0 Z " fill="#010101" transform="translate(1919.80078125,470.08203125)"/>
<path d="M0 0 C0.99902344 -0.01224609 1.99804688 -0.02449219 3.02734375 -0.03710938 C16.70430007 -0.06392694 27.73832025 3.75142909 37.90625 13.2109375 C43.66363621 19.38305068 47.75680526 26.33212038 50.75 34.1875 C51.01425781 34.83589844 51.27851563 35.48429687 51.55078125 36.15234375 C56.595437 49.63062911 57.19033742 63.97200355 57.09057617 78.18188477 C57.08972724 79.90850815 57.09021022 81.63513261 57.09190369 83.36175537 C57.09275468 87.99086441 57.07527639 92.61973408 57.05418181 97.24878812 C57.03526338 102.10806094 57.03365274 106.96734093 57.03010559 111.8266449 C57.02082924 121.00240806 56.996276 130.17806233 56.96605712 139.35377783 C56.93237475 149.81103145 56.91599252 160.26829063 56.90097082 170.7255851 C56.86972185 192.2129641 56.81476582 213.70019408 56.75 235.1875 C38.6 235.1875 20.45 235.1875 1.75 235.1875 C1.73541748 230.11101074 1.72083496 225.03452148 1.70581055 219.80419922 C1.65541405 203.00844772 1.58895852 186.21278789 1.51428509 169.41712761 C1.46941266 159.23659173 1.42997845 149.05609017 1.40356445 138.87548828 C1.38051491 129.99704054 1.34703975 121.11870218 1.30129844 112.24034131 C1.27745967 107.54388721 1.25866988 102.8475408 1.25238609 98.15102768 C1.24629266 93.72031024 1.22614115 89.28986802 1.19572449 84.85925293 C1.18701194 83.24292037 1.18320741 81.62655174 1.18499184 80.01019669 C1.1955679 65.99575999 0.35506816 51.90162542 -8.25 40.1875 C-14.16487827 34.44236437 -20.46358061 32.81758439 -28.5 32.875 C-29.25490723 32.87701416 -30.00981445 32.87902832 -30.78759766 32.88110352 C-36.47841261 32.98344748 -40.98695265 33.91894511 -46.25 36.1875 C-47.735 36.6825 -47.735 36.6825 -49.25 37.1875 C-49.95573071 31.6287816 -50.48851994 26.45972004 -47.73828125 21.4140625 C-35.50181708 7.07410264 -18.48087353 0.01174134 0 0 Z " fill="#020202" transform="translate(3379.25,460.8125)"/>
<path d="M0 0 C22.8336031 -0.91131897 46.58497947 3.11313233 64.69140625 18.25 C81.16751483 33.94632329 86.53046203 52.10671451 89 74 C89.16813202 75.29716446 89.33626404 76.59432892 89.50949097 77.93080139 C90.12710677 83.52703757 90.14465973 89.08577618 90.1418457 94.7109375 C90.14532013 95.84871643 90.14879456 96.98649536 90.15237427 98.15875244 C90.15969412 100.61569741 90.16505946 103.07264883 90.16866493 105.52960205 C90.17586938 109.42262042 90.19156378 113.31551558 90.21000671 117.20849609 C90.21634222 118.5467834 90.22266786 119.88507075 90.22898388 121.22335815 C90.23214969 121.89307522 90.2353155 122.56279228 90.23857725 123.2528038 C90.28049965 132.30198422 90.31363947 141.35111938 90.32592773 150.40039062 C90.335228 157.18010226 90.36536124 163.9594879 90.40724754 170.73907471 C90.4195388 173.31615812 90.42468225 175.89328619 90.42244911 178.47039795 C90.4200918 182.07696239 90.44229465 185.68262071 90.4699707 189.2890625 C90.46336929 190.34595276 90.45676788 191.40284302 90.44996643 192.49176025 C90.54771042 200.27069755 91.83704756 206.91419274 97.5625 212.5 C100.92582269 214.56973704 103.5578081 215.15478759 107.4375 215.1875 C108.19933594 215.20167969 108.96117187 215.21585938 109.74609375 215.23046875 C112.25027798 214.97440832 113.77049965 214.12139879 116 213 C117.32 213 118.64 213 120 213 C120.9375 215.5 120.9375 215.5 121 219 C114.58451674 230.01740235 101.68468987 236.38921387 90 240 C79.07984926 242.87760729 64.90234506 242.51857535 55 237 C43.36989664 230.04705022 37.83974789 221.82824862 34 209 C33.65786972 207.91168381 33.31573944 206.82336761 32.96324158 205.70207214 C31.44242712 199.51850688 31.71648069 193.22550625 31.72875977 186.89575195 C31.72436618 185.4772563 31.71906173 184.05876322 31.71292114 182.64027405 C31.7014667 179.59780109 31.69596507 176.55539736 31.69503975 173.51290321 C31.69308852 168.69052003 31.67497647 163.86827851 31.65428162 159.04594421 C31.60523132 147.06613056 31.57427123 135.08627854 31.55297852 123.10638428 C31.53640476 113.796388 31.51344529 104.48651391 31.46995777 95.1765992 C31.44832532 90.39490174 31.44011004 85.6134372 31.44235051 80.83169425 C31.44066907 77.84061644 31.42653123 74.84968732 31.40913773 71.85866356 C31.40098129 69.83710647 31.40741944 67.81550644 31.414505 65.79394531 C31.34960346 57.48752952 30.22021522 49.99925035 28 42 C27.69976205 40.91702794 27.3995241 39.83405588 27.09018803 38.71826649 C24.248759 28.89126469 18.82774539 19.58276388 10 14 C6.70643073 12.45463026 3.43544498 11.22358314 0 10 C0 6.7 0 3.4 0 0 Z " fill="#030303" transform="translate(1257,461)"/>
<path d="M0 0 C24.28691204 -0.758966 48.13447511 3.18798227 66.54296875 20.37890625 C73.19816465 27.47848725 78.73552524 35.80711588 82 45 C82.50273437 46.35544922 82.50273437 46.35544922 83.015625 47.73828125 C89.05890033 65.48476514 89.42727781 83.83302868 89.38012505 102.4028511 C89.37087987 106.38109495 89.38089722 110.35904985 89.39674377 114.33724976 C89.43251373 124.19967098 89.43916445 134.06208007 89.43664551 143.92456055 C89.43492873 151.6333083 89.44215647 159.34181944 89.47662407 167.05050123 C89.49594666 171.62693007 89.48601502 176.20277995 89.47129822 180.77920532 C89.48020317 183.18044515 89.49027774 185.58168102 89.50170898 187.98291016 C89.49196548 189.0563266 89.48222198 190.12974304 89.47218323 191.23568726 C89.5374745 198.1304733 90.63424229 203.910285 94 210 C98.46956045 214.36314234 101.4416368 215.21689012 107.46875 215.16796875 C111.42238692 214.90561321 115.17822092 214.01191314 119 213 C119.8125 216.125 119.8125 216.125 120 220 C113.58169501 230.77358338 99.41268695 237.39243132 87.6875 240.640625 C72.84561384 242.62529582 59.40224852 241.50715936 46.99609375 232.6171875 C37.31651924 224.77502733 33.60892256 214.04413476 32 202 C31.72886784 197.40380308 31.71926813 192.82031438 31.72875977 188.21704102 C31.72436109 186.86857289 31.71905483 185.52010747 31.71292114 184.17164612 C31.70150292 181.28802906 31.69596775 178.40448468 31.69503975 175.52084541 C31.69307904 170.93993248 31.67491438 166.35916682 31.65428162 161.77830505 C31.60535133 150.39584418 31.57434081 139.01334345 31.55297852 127.63079834 C31.53635198 118.78679803 31.51324105 109.94292534 31.46995777 101.09900993 C31.45195001 97.30123521 31.43953915 93.50363354 31.44125557 89.70581245 C32.22777986 51.25577479 32.22777986 51.25577479 15.15625 18.03515625 C10.53888082 13.70179192 5.87957432 11.29670872 0 9 C0 6.03 0 3.06 0 0 Z " fill="#010101" transform="translate(2198,461)"/>
<path d="M0 0 C0 77.55 0 155.1 0 235 C-12.21 235.33 -24.42 235.66 -37 236 C-45.86743263 240.33517862 -45.86743263 240.33517862 -53 246 C-53.99 246.33 -54.98 246.66 -56 247 C-55.99317042 245.97608312 -55.98634085 244.95216623 -55.97930431 243.89722157 C-55.81588747 218.94884013 -55.7276436 194.00104832 -55.71759319 169.05212116 C-55.71100398 156.98671528 -55.68025626 144.92228573 -55.59204102 132.85717773 C-55.51518699 122.33745962 -55.48426687 111.81876432 -55.50781661 101.29877442 C-55.51869376 95.7313054 -55.50703871 90.16599592 -55.44031334 84.59887123 C-55.37813561 79.35049048 -55.37772599 74.10560733 -55.4231987 68.85709 C-55.42920532 66.93870595 -55.41329683 65.02009818 -55.37295341 63.10212898 C-55.19595376 54.13683043 -55.16175174 47.03691128 -61.52507097 40.20625609 C-64.2234533 37.62701337 -67.05632196 35.29096693 -70 33 C-71.60630557 31.62749932 -73.21108006 30.25319805 -74.8125 28.875 C-75.75029297 28.12863281 -75.75029297 28.12863281 -76.70703125 27.3671875 C-78 26 -78 26 -78 23 C-77.175 22.76925781 -76.35 22.53851563 -75.5 22.30078125 C-66.95867019 19.88899951 -58.48150495 17.3109945 -50.01904297 14.63671875 C-47.39657644 13.80970633 -44.77148235 12.99124635 -42.14624023 12.1730957 C-35.44809763 10.08509188 -28.75431099 7.98319915 -22.0625 5.875 C-21.29381592 5.63338135 -20.52513184 5.3917627 -19.7331543 5.14282227 C-18.61420776 4.78982056 -18.61420776 4.78982056 -17.47265625 4.4296875 C-16.73934082 4.19862305 -16.00602539 3.96755859 -15.25048828 3.72949219 C-13.6855767 3.22222859 -12.12694748 2.69533647 -10.57373047 2.15332031 C-9.39061279 1.74098145 -9.39061279 1.74098145 -8.18359375 1.3203125 C-7.4764624 1.06781738 -6.76933105 0.81532227 -6.04077148 0.55517578 C-4 0 -4 0 0 0 Z " fill="#020202" transform="translate(1816,461)"/>
<path d="M0 0 C0 77.55 0 155.1 0 235 C-12.54 235.33 -25.08 235.66 -38 236 C-43.28 238.64 -48.56 241.28 -54 244 C-54.66 244 -55.32 244 -56 244 C-55.98948325 242.99523149 -55.9789665 241.99046297 -55.96813107 240.95524693 C-55.71554551 216.4479036 -55.56183443 191.94143658 -55.51034451 167.43282413 C-55.48318084 155.58013363 -55.42450928 143.72919885 -55.2902832 131.87719727 C-55.17329934 121.54047095 -55.11683816 111.20543749 -55.13146263 100.86802953 C-55.13712752 95.39922658 -55.11357399 89.9342424 -55.01739311 84.46620369 C-53.3415877 59.21111101 -53.3415877 59.21111101 -62.96898746 37.07389736 C-66.41362165 33.92603937 -70.01325291 31.40357869 -74 29 C-77.04344177 26.75379944 -77.04344177 26.75379944 -79 25 C-79 24.34 -79 23.68 -79 23 C-77.72443237 22.63865967 -77.72443237 22.63865967 -76.4230957 22.27001953 C-67.99043876 19.87225561 -59.58242233 17.40227617 -51.1875 14.875 C-49.92518555 14.49609619 -48.66287109 14.11719238 -47.36230469 13.72680664 C-40.1648595 11.56484211 -32.97310016 9.38474613 -25.78515625 7.19140625 C-24.26213637 6.72734112 -22.73910588 6.26331082 -21.21606445 5.79931641 C-18.27221264 4.90242062 -15.32954333 4.00177009 -12.38745117 3.09912109 C-11.04479979 2.68964524 -9.70210975 2.28029613 -8.359375 1.87109375 C-7.17827148 1.50943115 -5.99716797 1.14776855 -4.78027344 0.77514648 C-2 0 -2 0 0 0 Z " fill="#010101" transform="translate(3194,461)"/>
<path d="M0 0 C0 77.55 0 155.1 0 235 C-11.88 235.33 -23.76 235.66 -36 236 C-45.85059541 241.30530269 -45.85059541 241.30530269 -54 248 C-54.33 248 -54.66 248 -55 248 C-54.99132684 246.9788485 -54.98265368 245.95769699 -54.97371769 244.9056015 C-54.76569595 220.00630189 -54.64474289 195.10772382 -54.61396885 170.20755768 C-54.59709098 158.16560442 -54.55239698 146.12497798 -54.44116211 134.08349609 C-54.34422837 123.58238625 -54.30056238 113.08260287 -54.31963962 102.58103991 C-54.32790483 97.02490113 -54.31033002 91.47166903 -54.22885323 85.9160614 C-54.15282999 80.67473591 -54.14862235 75.43801982 -54.19698334 70.19641304 C-54.20242808 68.28408498 -54.18273329 66.37147392 -54.13454247 64.45974541 C-53.90248826 54.66858581 -54.48804952 47.77511848 -61.19845384 40.24958754 C-63.75312436 37.64467146 -66.40316281 35.17694793 -69.12755096 32.75105953 C-72.02087986 30.04530304 -74.48259928 27.05495468 -77 24 C-67.27132813 20.33797306 -57.39910423 17.14228992 -47.51269531 13.93652344 C-44.63793762 13.00419587 -41.76421194 12.06874153 -38.890625 11.1328125 C-30.16995702 8.29663894 -21.44722695 5.47933229 -12.66943359 2.82421875 C-10.73327325 2.22640667 -8.8130775 1.57608573 -6.90478516 0.89453125 C-4 0 -4 0 0 0 Z " fill="#010101" transform="translate(2406,461)"/>
<path d="M0 0 C0 77.55 0 155.1 0 235 C-17.325 235.495 -17.325 235.495 -35 236 C-41.61377416 238.66214809 -45.53770765 240.2782619 -51 244 C-52.32239551 244.37437817 -53.65521082 244.71639648 -55 245 C-54.98948325 243.99523149 -54.9789665 242.99046297 -54.96813107 241.95524693 C-54.71554551 217.4479036 -54.56183443 192.94143658 -54.51034451 168.43282413 C-54.48318084 156.58013363 -54.42450928 144.72919885 -54.2902832 132.87719727 C-54.17329934 122.54047095 -54.11683816 112.20543749 -54.13146263 101.86802953 C-54.13712752 96.39922658 -54.11357399 90.9342424 -54.01739311 85.46620369 C-52.32669042 60.20923051 -52.32669042 60.20923051 -62.01781559 38.12272549 C-64.8848697 35.53461366 -67.83916298 33.32881722 -71.10644722 31.2738781 C-73.65391998 29.56007863 -75.33641246 27.56281089 -77 25 C-77 24.34 -77 23.68 -77 23 C-65.62235491 19.3459704 -54.20247279 15.84915746 -42.75 12.4375 C-33.76384159 9.76005549 -24.81347598 7.02104311 -15.9375 3.99609375 C-4.15294118 0 -4.15294118 0 0 0 Z " fill="#000000" transform="translate(3310,461)"/>
<path d="M0 0 C1.15551266 3.15343131 1.62062479 5.67486394 1 9 C-2.23480698 12.56597552 -6.1036341 15.19670856 -10 18 C-31.57307792 35.70989093 -39.89553039 67.48592792 -42.67041016 93.87939453 C-45.19905717 122.87918232 -43.89084844 153.43006454 -34 181 C-33.77586426 181.6379248 -33.55172852 182.27584961 -33.32080078 182.93310547 C-26.95203845 200.77193236 -16.74718759 220.1264062 1 229 C1 232.63 1 236.26 1 240 C-26.29930378 238.67906595 -50.66342734 224.48847737 -70 206 C-70.67289062 205.39027344 -71.34578125 204.78054688 -72.0390625 204.15234375 C-92.03566813 185.39058827 -103.29277245 157.14709402 -104.25868225 130.10321045 C-104.71459722 114.2266688 -105.05244958 98.23533959 -100 83 C-99.5973291 81.78449463 -99.5973291 81.78449463 -99.18652344 80.54443359 C-92.88343407 62.21800931 -83.56299172 47.71495801 -70 34 C-69.34773438 33.27554688 -68.69546875 32.55109375 -68.0234375 31.8046875 C-53.60920842 16.12048229 -33.17549411 7.29529754 -13 2 C-11.7521875 1.62875 -10.504375 1.2575 -9.21875 0.875 C-5.99142619 -0.00233075 -3.32594403 -0.16224117 0 0 Z " fill="#020202" transform="translate(348,461)"/>
<path d="M0 0 C0.71734632 3.53601013 0.89908096 6.48449244 0 10 C-2.46062204 12.4155557 -5.08964709 14.09779493 -7.98828125 15.9609375 C-26.88619156 28.75563164 -35.96753751 54.6716667 -40.24023438 75.8605957 C-40.75884837 78.57575059 -41.2277327 81.29719514 -41.67529297 84.02490234 C-41.97851773 85.86932965 -42.30291407 87.71024154 -42.62890625 89.55078125 C-48.64464796 128.71620454 -43.62683823 177.62472824 -20.09765625 210.671875 C-15.21422123 217.05418611 -9.54722474 223.73930588 -2.25 227.3671875 C0 229 0 229 0.48828125 231.69921875 C0.43027344 232.68535156 0.37226562 233.67148437 0.3125 234.6875 C0.26738281 235.68136719 0.22226562 236.67523437 0.17578125 237.69921875 C0.11777344 238.45847656 0.05976562 239.21773437 0 240 C-29.94162026 237.20801612 -58.18379454 221.71460645 -77.5625 198.8125 C-95.79879896 175.58487056 -105.16058378 150.96618842 -105.24023438 121.19677734 C-105.24985275 119.03312412 -105.28089549 116.87045889 -105.3125 114.70703125 C-105.4083915 102.21241392 -103.64789294 90.29609013 -99.3125 78.5 C-99.05831299 77.79915283 -98.80412598 77.09830566 -98.54223633 76.3762207 C-86.98292212 45.63557217 -62.79155756 21.75155097 -33.1484375 8.18359375 C-23.02227827 3.80882822 -11.13444416 -0.44606402 0 0 Z " fill="#020202" transform="translate(634,461)"/>
<path d="M0 0 C22.907249 1.44102 45.85978517 11.90725111 63 27 C63.81726563 27.68578125 64.63453125 28.3715625 65.4765625 29.078125 C87.65206099 48.16415776 102.07607659 76.63855811 104.7109375 105.8125 C104.81334628 107.20790219 104.90952758 108.6037731 105 110 C105.07589355 111.09441406 105.07589355 111.09441406 105.15332031 112.2109375 C107.15373885 145.94461417 95.71432687 176.86686154 73.625 202.0625 C56.41477892 220.8031602 31.60540825 236.07002791 6 239 C2.3125 239.125 2.3125 239.125 0 239 C-0.63479982 235.49449434 -0.82890702 232.4844795 0 229 C2.23492075 226.76956704 4.58328008 225.32428231 7.27734375 223.68359375 C26.95349179 211.5165639 34.85410542 184.03605506 40 163 C42.31957995 152.9071712 43.15129237 142.9277243 43.23828125 132.5859375 C43.24802979 131.62108932 43.25777832 130.65624115 43.26782227 129.66215515 C43.71009148 100.58383357 43.71009148 100.58383357 39 72 C38.80212891 71.23864746 38.60425781 70.47729492 38.40039062 69.69287109 C37.149611 65.0429258 35.66488011 60.52114232 34 56 C33.41412109 54.40671875 33.41412109 54.40671875 32.81640625 52.78125 C27.02204153 38.03886633 16.97690073 19.88048253 2.5 12.125 C0 10 0 10 -0.3671875 7.5390625 C-0.37430754 4.99720832 -0.26046347 2.52746037 0 0 Z " fill="#020202" transform="translate(381,461)"/>
<path d="M0 0 C14.78117011 0.71063318 28.02437087 5.17619077 41 12 C41.60618164 12.31485352 42.21236328 12.62970703 42.83691406 12.95410156 C70.57348611 27.52654962 90.74778391 51.92184371 100.29882812 81.671875 C101.3181599 85.08835093 102.19595073 88.52707764 103 92 C103.24492188 93.051875 103.48984375 94.10375 103.7421875 95.1875 C109.45811572 126.50765466 103.87879071 161.5996935 85.875 188.125 C68.37059271 212.99393699 43.02078963 231.45437121 13 238 C9.00039325 238.52417754 5.03041298 238.85236582 1 239 C0.19522148 235.43065821 0.02567739 232.54931808 1 229 C3.70951506 226.33475807 6.69247064 224.30082006 9.83203125 222.19140625 C28.08268235 209.56672652 37.0154592 183.29492731 40.83618164 162.41748047 C41.25075537 159.94828219 41.63290062 157.47667045 42 155 C42.11569336 154.25621094 42.23138672 153.51242187 42.35058594 152.74609375 C48.42781542 111.84651966 45.53765888 62.273216 20.35546875 27.90234375 C15.34588431 21.72967171 10.06697816 16.25718961 3.375 11.9375 C0.9248905 10.23029518 0.12403462 9.59556306 -0.4921875 6.63671875 C-0.49925244 4.36534087 -0.35851328 2.24070801 0 0 Z " fill="#020202" transform="translate(666,461)"/>
<path d="M0 0 C26.18207715 1.6623541 48.10132746 11.85740427 66 31 C66.99560446 32.0043763 67.99361042 33.00643067 69 34 C69.20753906 33.32582031 69.41507813 32.65164063 69.62890625 31.95703125 C75.81231072 18.62131278 90.10808174 7.03144234 103.55078125 1.84765625 C107.8271091 0.79673536 111.85785612 0.49869573 116.25 0.4375 C116.99451416 0.42267578 117.73902832 0.40785156 118.50610352 0.39257812 C124.62340685 0.50678048 129.87601661 2.2653942 134.53173828 6.34082031 C139.55397477 11.84319065 140.47327909 18.26290258 140.3203125 25.44140625 C139.54556528 31.62993585 136.45663246 37.66716288 132 42 C125.6852512 46.76348296 118.65126453 46.97310347 111 46 C106.89928416 44.63309472 103.58880962 42.39253975 100 40 C100 39.34 100 38.68 100 38 C99.38125 37.690625 98.7625 37.38125 98.125 37.0625 C96.75 36.375 95.375 35.6875 94 35 C89.32421028 34.23487077 87.14774361 34.31075055 83.02734375 36.78515625 C80.28817197 38.78916967 77.61967155 40.84262343 75 43 C76.01840615 46.13826443 77.05709272 49.12411462 78.4375 52.125 C85.62593771 68.54528918 86.98765709 91.0710418 81 108 C80.64808594 109.051875 80.29617187 110.10375 79.93359375 111.1875 C72.39954721 132.27288436 57.97002887 149.11667933 37.625 158.8125 C25.92848692 164.12786695 13.88823471 167.22610938 1 167 C0.63896486 164.00856595 0.40532643 161.90434323 1 159 C2.50856877 157.29837034 4.17571484 156.10287477 5.99609375 154.7421875 C21.74391954 141.05109529 25.56802192 114.55624505 27 95 C28.43050469 67.33618319 26.43604898 37.31573128 7.875 14.9375 C6.01639768 12.88904045 4.46615932 11.6402378 2.125 10.0625 C0 8 0 8 -0.30859375 5.98046875 C-0.31208961 3.98433007 -0.16577055 1.98924658 0 0 Z " fill="#020202" transform="translate(3597,461)"/>
<path d="M0 0 C0.66 0 1.32 0 2 0 C3.30529918 1.88852201 4.51155171 3.84561043 5.67578125 5.82421875 C6.03702591 6.4328627 6.39827057 7.04150665 6.77046204 7.66859436 C7.54987855 8.98344327 8.32598961 10.3002559 9.09918213 11.61877441 C10.72962812 14.39870984 12.37595246 17.16910526 14.02185059 19.93991089 C14.84984987 21.33392435 15.6770773 22.72839655 16.50354004 24.12332153 C19.81348957 29.70568574 23.19263965 35.24197818 26.625 40.75 C27.66019564 42.41273589 28.69535137 44.07549663 29.73046875 45.73828125 C30.25431152 46.57955566 30.7781543 47.42083008 31.31787109 48.28759766 C33.85602744 52.38032871 36.36978707 56.48794446 38.88671875 60.59375 C46.22919301 72.56547947 53.69047739 84.45303552 61.26464844 96.27929688 C63.06471117 99.10145488 64.85033384 101.93233183 66.6328125 104.765625 C81.2762201 129.00315901 81.2762201 129.00315901 100.82421875 149.2109375 C101.54222656 149.80132813 102.26023437 150.39171875 103 151 C103 151.66 103 152.32 103 153 C79.24 153 55.48 153 31 153 C26.71 145.08 22.42 137.16 18 129 C12.90142967 120.15706796 12.90142967 120.15706796 7.7421875 111.3515625 C5.06437333 106.81403577 2.40537532 102.26613681 -0.2421875 97.7109375 C-8.23632381 83.97028902 -16.37705803 70.35859585 -25 57 C-25.91192843 55.57842646 -26.82339314 54.15655532 -27.734375 52.734375 C-29.81693302 49.48569477 -31.90607021 46.24136102 -34 43 C-31.54234573 39.22613534 -29.00149581 35.65160682 -26.125 32.1875 C-25.34640625 31.24519531 -24.5678125 30.30289063 -23.765625 29.33203125 C-23.33185547 28.80947754 -22.89808594 28.28692383 -22.45117188 27.74853516 C-19.58588315 24.29611291 -16.73054161 20.83548444 -13.875 17.375 C-13.26962402 16.64313477 -12.66424805 15.91126953 -12.04052734 15.15722656 C-8.31995018 10.64688021 -4.69334213 6.08705666 -1.234375 1.37109375 C-0.82703125 0.91863281 -0.4196875 0.46617187 0 0 Z " fill="#010101" transform="translate(2621,543)"/>
<path d="M0 0 C0 3.63 0 7.26 0 11 C-0.73863281 11.27972656 -1.47726562 11.55945313 -2.23828125 11.84765625 C-16.5383414 17.498633 -27.43858716 24.44457425 -35 38 C-35.77150391 39.35158203 -35.77150391 39.35158203 -36.55859375 40.73046875 C-42.51025541 53.22390016 -42.05270518 70.34095361 -38.375 83.5 C-34.50321908 93.5639323 -28.63064735 101.04659794 -18.94921875 106.0625 C-12.00189787 108.7838611 -4.36770826 108.71849336 3 109 C3.73748676 112.21812406 3.87527556 114.79728716 3 118 C-6.64924843 128.30715173 -21.0369093 132.67924524 -34.71875 133.21875 C-52.16480562 133.65858042 -67.67199769 130.30817985 -81.375 118.875 C-92.98171558 107.61190429 -98.86154945 92.27834469 -99.29248047 76.24072266 C-99.46112813 58.41754399 -94.72511909 43.38704619 -82.29272461 30.20483398 C-62.73554107 10.30860276 -27.56651551 0 0 0 Z " fill="#020202" transform="translate(1260,569)"/>
<path d="M0 0 C0 3.63 0 7.26 0 11 C-0.73863281 11.32871094 -1.47726563 11.65742187 -2.23828125 11.99609375 C-18.67065086 19.70072448 -26.6057822 29.15677382 -33.01953125 45.82421875 C-37.39776939 60.00552397 -36.10229053 77.34255291 -29.6796875 90.7578125 C-25.01830988 98.27205512 -18.84477708 104.07639363 -10.25390625 106.51171875 C-6.83988425 107.2513249 -3.47917108 107.68371172 0 108 C0.59036626 112.04822582 0.78877863 115.51709618 -1.171875 119.203125 C-7.31728831 126.8702597 -16.52268947 130.30171039 -26 132 C-29.11061763 132.26212499 -32.19229854 132.28756997 -35.3125 132.25 C-36.15063232 132.24105713 -36.98876465 132.23211426 -37.85229492 132.22290039 C-51.83624473 131.96170787 -64.25263567 128.46920208 -75 119 C-81.15898767 112.44940039 -85.49378817 105.24685918 -89 97 C-89.41507813 96.02675781 -89.83015625 95.05351563 -90.2578125 94.05078125 C-96.08912762 78.12680533 -94.03935763 59.34566034 -87.71484375 43.8515625 C-78.42829942 25.38194509 -60.25932861 14.6038293 -41.296875 8.06835938 C-35.25443233 6.15635787 -29.14416228 4.54732314 -23 3 C-21.72511719 2.6596875 -20.45023438 2.319375 -19.13671875 1.96875 C-12.58445 0.30565946 -6.75751934 -0.30257549 0 0 Z " fill="#020202" transform="translate(2203,570)"/>
<path d="M0 0 C19.79173454 1.62227332 36.90921564 10.14097196 51 24 C52.051875 25.03253906 52.051875 25.03253906 53.125 26.0859375 C73.31475841 47.30095708 79 77.90013977 79 106 C41.71 106 4.42 106 -34 106 C-34 100.72 -34 95.44 -34 90 C-14.2 90 5.6 90 26 90 C25.41105632 50.62398835 25.41105632 50.62398835 8 16 C6.54131943 14.78742371 5.06235345 13.5987622 3.5625 12.4375 C1.13991141 10.48635929 0.13392052 9.64572531 -0.50390625 6.5703125 C-0.50040514 4.32259933 -0.36185227 2.21634514 0 0 Z " fill="#040404" transform="translate(2836,461)"/>
<path d="M0 0 C0.84498047 -0.00128906 1.68996094 -0.00257813 2.56054688 -0.00390625 C3.44935547 -0.00003906 4.33816406 0.00382812 5.25390625 0.0078125 C6.13884766 0.00394531 7.02378906 0.00007813 7.93554688 -0.00390625 C8.78181641 -0.00261719 9.62808594 -0.00132812 10.5 0 C11.27915771 0.00112793 12.05831543 0.00225586 12.86108398 0.00341797 C14.81640625 0.1328125 14.81640625 0.1328125 16.81640625 1.1328125 C16.81640625 1.7928125 16.81640625 2.4528125 16.81640625 3.1328125 C17.54988281 3.23722656 18.28335938 3.34164063 19.0390625 3.44921875 C25.92289417 5.14355144 30.74528655 10.50552394 34.31640625 16.3828125 C37.23189498 21.5982979 37.97425019 25.44885781 38.00390625 31.4453125 C38.01808594 32.74082031 38.03226563 34.03632813 38.046875 35.37109375 C37.50840912 44.15995206 32.92800863 51.5048091 26.56640625 57.4453125 C18.17373268 64.00951688 9.26556132 65.27644122 -1.18359375 64.1328125 C-9.45724916 62.36823345 -15.68130292 57.41557012 -21.18359375 51.1328125 C-26.4667531 42.74761463 -28.31222129 35.01915562 -27.18359375 25.1328125 C-23.52796084 14.17896961 -17.1216139 7.25701943 -7.00390625 2.078125 C-3.01063207 0.00436459 -3.01063207 0.00436459 0 0 Z " fill="#030303" transform="translate(3144.18359375,349.8671875)"/>
<path d="M0 0 C7.35032923 3.82806053 12.78084051 9.96756957 16.53515625 17.3203125 C19.15271568 27.42120133 17.63361314 36.27508061 12.53515625 45.3203125 C8.33654744 51.14934554 2.43198907 55.33101002 -4.46484375 57.3203125 C-12.84875771 58.54240276 -21.49845035 58.69783703 -28.6796875 53.73046875 C-29.26878906 53.26511719 -29.85789062 52.79976562 -30.46484375 52.3203125 C-31.53734375 51.5778125 -32.60984375 50.8353125 -33.71484375 50.0703125 C-40.13447213 43.65068412 -43.40820594 35.48185895 -43.83984375 26.4453125 C-43.63597773 18.03583914 -39.34050872 10.23324384 -33.46484375 4.3203125 C-22.81582124 -3.32173173 -12.35336319 -5.08354226 0 0 Z " fill="#030303" transform="translate(3521.46484375,765.6796875)"/>
<path d="M0 0 C-0.3609375 0.54527344 -0.721875 1.09054687 -1.09375 1.65234375 C-4.48963652 7.17065934 -6.24399343 11.51263242 -5 18 C-3.9874842 20.88482155 -2.58355287 23.39122902 -1 26 C-0.48308594 26.86367188 0.03382812 27.72734375 0.56640625 28.6171875 C1.60975962 30.35191961 2.66365585 32.08037665 3.73046875 33.80078125 C7.02222748 39.50312021 6.68011633 46.1002504 5.57421875 52.44140625 C3.5178191 59.6955768 -1.06274366 65.4459539 -7.5 69.375 C-16.06396116 73.35112483 -24.19735098 74.65408171 -33.1875 71.375 C-40.68621204 67.99000146 -45.66840947 63.53646665 -49.1171875 55.9765625 C-51.49393241 47.96293587 -51.39859563 38.63165832 -47.3828125 31.17578125 C-46.92648437 30.45777344 -46.47015625 29.73976563 -46 29 C-45.44054688 28.10667969 -44.88109375 27.21335937 -44.3046875 26.29296875 C-37.30693156 15.93798982 -14.28940145 -4.6583844 0 0 Z " fill="#030303" transform="translate(1225,467)"/>
<path d="M0 0 C10.97005289 -0.79142666 20.30267229 1.9411549 30 7 C30 7.66 30 8.32 30 9 C30.56847656 9.12375 31.13695312 9.2475 31.72265625 9.375 C38.48635797 11.1816649 42.22214769 14.11790352 46 20 C50.58585467 28.47976086 50.45573312 36.61949318 50 46 C49.34 46 48.68 46 48 46 C48 47.65 48 49.3 48 51 C47.34 51 46.68 51 46 51 C46 52.32 46 53.64 46 55 C45.01 55.495 45.01 55.495 44 56 C43.67 56.7425 43.34 57.485 43 58.25 C39.43209199 63.15587352 32.93468512 65.91272944 27 67 C20.07122733 67.50817515 14.13608344 67.58902994 8 64 C7.25878906 63.57074219 6.51757812 63.14148438 5.75390625 62.69921875 C-1.32318842 58.01601817 -4.14514709 52.1740822 -6 44 C-6.34821835 39.6243615 -6.32223962 35.37529796 -6 31 C-5.34 31 -4.68 31 -4 31 C-4 29.68 -4 28.36 -4 27 C-3.34 27 -2.68 27 -2 27 C-1.67 25.02 -1.34 23.04 -1 21 C-0.01 20.67 0.98 20.34 2 20 C3.34708162 15.95875514 3.44671964 12.22894594 3 8 C1.61114752 5.18219466 1.61114752 5.18219466 0 3 C0 2.01 0 1.02 0 0 Z " fill="#030303" transform="translate(1116,330)"/>
<path d="M0 0 C13.60693912 -1.76628537 27.28111006 5.71828008 37.984375 13.4296875 C44.19549657 18.3401896 47.85647673 24.40796163 50 32 C51.10364807 42.1124963 49.27507732 49.67799935 44 58.25 C39.33696153 63.24101977 32.54656171 66.45607595 25.8671875 67.48046875 C17.00585826 67.71843283 10.12142596 66.02755431 3.1875 60.4375 C-3.31862183 54.15886494 -5.17831255 47.78770108 -5.75 38.875 C-5.60427579 31.6762238 -3.31080019 26.80592453 0.12915039 20.58203125 C2.97029481 15.38238303 4.06488259 12.00206553 3 6 C1.65253476 2.54653852 1.65253476 2.54653852 0 0 Z " fill="#030303" transform="translate(204,331)"/>
<path d="M0 0 C5.91605699 3.63356442 9.96929908 9.02024528 11.8203125 15.70703125 C13.57061886 26.4276577 13.02476623 36.2706322 6.90234375 45.41015625 C3.76692544 49.39457523 0.22396113 52.96901754 -4.7421875 54.38671875 C-12.99984257 55.28068364 -20.9152174 55.57821689 -27.7421875 50.38671875 C-29.91562033 48.6059813 -32.02087169 46.78881931 -34.078125 44.875 C-37.17570712 42.10462726 -39.80432552 42.1267723 -43.8671875 41.82421875 C-44.96289062 41.74042969 -46.05859375 41.65664063 -47.1875 41.5703125 C-48.45207031 41.47943359 -48.45207031 41.47943359 -49.7421875 41.38671875 C-50.8234174 30.95885703 -47.68044967 20.85047249 -41.4296875 12.44921875 C-30.51487035 -0.20632355 -16.48497915 -7.55340684 0 0 Z " fill="#030303" transform="translate(2475.7421875,463.61328125)"/>
<path d="M0 0 C0 3.96 0 7.92 0 12 C0.66 12 1.32 12 2 12 C2 13.32 2 14.64 2 16 C2.66 16 3.32 16 4 16 C4.6708712 17.6232687 5.33657029 19.24867578 6 20.875 C6.37125 21.77992188 6.7425 22.68484375 7.125 23.6171875 C8 26 8 26 8 28 C8.66 28 9.32 28 10 28 C11.3006046 31.9534251 11.14720431 35.95100248 11.125 40.0625 C11.13080078 41.14241211 11.13080078 41.14241211 11.13671875 42.24414062 C11.13080799 45.42708639 11.01350713 47.95947862 10 51 C9.01 51 8.02 51 7 51 C7 51.99 7 52.98 7 54 C6.34 54 5.68 54 5 54 C4.67 54.99 4.34 55.98 4 57 C1.525 57.495 1.525 57.495 -1 58 C-1 58.99 -1 59.98 -1 61 C-6.56843461 63.40797172 -12.03467051 63.41913263 -18 63 C-18.66 62.67 -19.32 62.34 -20 62 C-20 61.34 -20 60.68 -20 60 C-21.65 59.67 -23.3 59.34 -25 59 C-25 58.01 -25 57.02 -25 56 C-25.66 56 -26.32 56 -27 56 C-27.33 54.68 -27.66 53.36 -28 52 C-28.66 52 -29.32 52 -30 52 C-30 50.02 -30 48.04 -30 46 C-30.66 46 -31.32 46 -32 46 C-32.02710123 43.4374282 -32.04688771 40.87514635 -32.0625 38.3125 C-32.07087891 37.59126953 -32.07925781 36.87003906 -32.08789062 36.12695312 C-32.10543632 32.28444618 -31.93524221 28.73360474 -31 25 C-30.34 25 -29.68 25 -29 25 C-28.95875 24.34 -28.9175 23.68 -28.875 23 C-27.60585067 18.64863087 -25.09777385 15.28639708 -22 12 C-20.6779697 11.3111908 -19.34606144 10.64057851 -18 10 C-17.67 9.34 -17.34 8.68 -17 8 C-15.74458443 5.48916886 -14.49936512 5.12874554 -12 4 C-11.67 3.34 -11.34 2.68 -11 2 C-6.90305984 -0.1069978 -4.93509179 0 0 0 Z " fill="#030303" transform="translate(2160,475)"/>
<path d="M0 0 C22.11 0 44.22 0 67 0 C67 1.65 67 3.3 67 5 C64.46094664 6.80131389 62.11605009 8.20163895 59.375 9.625 C41.51181168 19.53369083 26.93000413 33.64076622 12.85546875 48.3046875 C11 50 11 50 9 50 C8.96261719 48.87464844 8.92523437 47.74929688 8.88671875 46.58984375 C8.30447912 31.99706325 5.87344021 18.74006574 0.98828125 4.94921875 C0 2 0 2 0 0 Z " fill="#030303" transform="translate(2637,467)"/>
<path d="M0 0 C-0.01160156 0.75925781 -0.02320312 1.51851563 -0.03515625 2.30078125 C-0.04417969 3.29464844 -0.05320312 4.28851563 -0.0625 5.3125 C-0.07410156 6.29863281 -0.08570312 7.28476562 -0.09765625 8.30078125 C-0.12329862 11.09963849 -0.12329862 11.09963849 1 14 C1.66 14 2.32 14 3 14 C3.495 18.455 3.495 18.455 4 23 C4.99 23.33 5.98 23.66 7 24 C10.37706752 30.56652019 10.13288005 37.68540746 10.0625 44.875 C10.05798828 45.75414062 10.05347656 46.63328125 10.04882812 47.5390625 C10.03712337 49.69273803 10.01919069 51.84637817 10 54 C9.34 54 8.68 54 8 54 C7.67 55.32 7.34 56.64 7 58 C6.34 58 5.68 58 5 58 C4.67 58.99 4.34 59.98 4 61 C3.34 61 2.68 61 2 61 C1.773125 61.763125 1.54625 62.52625 1.3125 63.3125 C-0.37036734 66.75837121 -1.50115678 67.42779253 -5 69 C-8.15510655 69.4061247 -11.26098834 69.37363379 -14.4375 69.3125 C-15.27087891 69.31572266 -16.10425781 69.31894531 -16.96289062 69.32226562 C-23.31120959 69.26706285 -28.37434306 68.02919989 -34 65 C-34 64.34 -34 63.68 -34 63 C-34.66 63 -35.32 63 -36 63 C-36.33 62.34 -36.66 61.68 -37 61 C-37.99 60.67 -38.98 60.34 -40 60 C-43.09209513 54.48358615 -43.46372069 49.74002208 -43.375 43.5 C-43.38660156 42.68402344 -43.39820312 41.86804688 -43.41015625 41.02734375 C-43.38407681 35.61151242 -42.45441522 31.83091249 -40 27 C-39.34 27 -38.68 27 -38 27 C-37.67 25.35 -37.34 23.7 -37 22 C-36.34 22 -35.68 22 -35 22 C-35 21.01 -35 20.02 -35 19 C-34.01 19 -33.02 19 -32 19 C-31.67 18.01 -31.34 17.02 -31 16 C-30.34 16 -29.68 16 -29 16 C-28.67 15.01 -28.34 14.02 -28 13 C-24.10501529 9.35630463 -19.68144502 7.13011934 -14.9375 4.8125 C-13.87692383 4.27979492 -13.87692383 4.27979492 -12.79492188 3.73632812 C-8.46027417 1.59138978 -4.91526067 0 0 0 Z M-14 7 C-14.33 7.66 -14.66 8.32 -15 9 C-15.825 9.474375 -16.65 9.94875 -17.5 10.4375 C-20.29155483 11.81319541 -20.29155483 11.81319541 -21 15 C-22.33333333 15.66666667 -23.66666667 16.33333333 -25 17 C-26.97828573 19.01617851 -26.97828573 19.01617851 -28.75 21.375 C-29.36359375 22.14585937 -29.9771875 22.91671875 -30.609375 23.7109375 C-32.34613764 26.12337154 -32.34613764 26.12337154 -32 30 C-32.66 30 -33.32 30 -34 30 C-35.11165232 34.4378561 -35.11527763 38.76956386 -35.0625 43.3125 C-35.05798828 44.05306641 -35.05347656 44.79363281 -35.04882812 45.55664062 C-35.03712175 47.37112899 -35.01918898 49.18557534 -35 51 C-34.34 51 -33.68 51 -33 51 C-33 52.98 -33 54.96 -33 57 C-32.34 57 -31.68 57 -31 57 C-30.67 58.32 -30.34 59.64 -30 61 C-29.34 61 -28.68 61 -28 61 C-28 61.99 -28 62.98 -28 64 C-26.35 64.33 -24.7 64.66 -23 65 C-23 65.66 -23 66.32 -23 67 C-18.16704501 69.41647749 -11.34532779 68.36483465 -6.3125 67 C-5.1678125 66.505 -5.1678125 66.505 -4 66 C-4 65.01 -4 64.02 -4 63 C-1.525 62.505 -1.525 62.505 1 62 C1.33 61.01 1.66 60.02 2 59 C2.66 59 3.32 59 4 59 C4 58.01 4 57.02 4 56 C4.99 56 5.98 56 7 56 C8.22886899 52.31339303 8.14560987 48.89937025 8.125 45.0625 C8.12886719 44.34642578 8.13273437 43.63035156 8.13671875 42.89257812 C8.13035293 39.45821844 8.07950442 36.28135074 7 33 C6.34 33 5.68 33 5 33 C3 27 3 27 1 21 C0.34 21 -0.32 21 -1 21 C-1 19.68 -1 18.36 -1 17 C-1.66 17 -2.32 17 -3 17 C-3 13.04 -3 9.08 -3 5 C-8.91907581 4.9465011 -8.91907581 4.9465011 -14 7 Z " fill="#A9A6A5" transform="translate(2163,470)"/>
<path d="M0 0 C12.21 0 24.42 0 37 0 C33 17 33 17 32 21 C21.44 21 10.88 21 0 21 C0 14.07 0 7.14 0 0 Z " fill="#090909" transform="translate(914,467)"/>
<path d="M0 0 C11.88 0 23.76 0 36 0 C34.7252887 7.01091213 33.39749471 14.01252647 32 21 C21.44 21 10.88 21 0 21 C0 14.07 0 7.14 0 0 Z " fill="#020202" transform="translate(3051,468)"/>
<path d="M0 0 C0.33 0 0.66 0 1 0 C1.125 7.75 1.125 7.75 0 10 C0.66 10 1.32 10 2 10 C2.33 7.03 2.66 4.06 3 1 C4.32 1 5.64 1 7 1 C6.67 7.6 6.34 14.2 6 21 C6.66 21 7.32 21 8 21 C8 22.98 8 24.96 8 27 C8.66 27 9.32 27 10 27 C10.33 28.32 10.66 29.64 11 31 C11.66 31 12.32 31 13 31 C13 31.99 13 32.98 13 34 C14.65 34.33 16.3 34.66 18 35 C18 35.66 18 36.32 18 37 C20.04159095 37.0272616 22.08328963 37.04651345 24.125 37.0625 C25.26195313 37.07410156 26.39890625 37.08570313 27.5703125 37.09765625 C30.8129156 37.005327 33.81932612 36.61389906 37 36 C37 35.01 37 34.02 37 33 C38.98 32.34 40.96 31.68 43 31 C42.12188176 33.95367044 41.40647848 35.66365899 39.0078125 37.6484375 C34.80721829 39.53597723 31.11228333 39.40006319 26.5625 39.3125 C25.72912109 39.31572266 24.89574219 39.31894531 24.03710938 39.32226562 C17.68879041 39.26706285 12.62565694 38.02919989 7 35 C7 34.34 7 33.68 7 33 C6.34 33 5.68 33 5 33 C4.67 32.34 4.34 31.68 4 31 C3.01 30.67 2.02 30.34 1 30 C-2.1454838 24.42358023 -2.43508953 19.62340923 -2.3125 13.3125 C-2.31572266 12.47138672 -2.31894531 11.63027344 -2.32226562 10.76367188 C-2.28551281 6.55046252 -2.11378621 3.72949938 0 0 Z " fill="#C7C0BA" transform="translate(2122,500)"/>
<path d="M0 0 C-4.33664919 3.11696661 -7.80408388 3.55966813 -13 4 C-13 4.66 -13 5.32 -13 6 C-18.45461169 7.38529821 -23.36718401 8.2396943 -29 8 C-29.33 8.99 -29.66 9.98 -30 11 C-34.0916861 12.80795432 -37.55719328 13.21156222 -42 13 C-42 13.66 -42 14.32 -42 15 C-42.74765625 15.12117188 -43.4953125 15.24234375 -44.265625 15.3671875 C-45.25046875 15.53476562 -46.2353125 15.70234375 -47.25 15.875 C-48.22453125 16.03742188 -49.1990625 16.19984375 -50.203125 16.3671875 C-52.95873612 16.87364623 -52.95873612 16.87364623 -55.125 18.0625 C-58.02502769 19.51251384 -60.81959299 19.12232335 -64 19 C-63.67 19.99 -63.34 20.98 -63 22 C-63.66 22 -64.32 22 -65 22 C-65 20.68 -65 19.36 -65 18 C-59.37422812 15.32106101 -53.60641815 13.68832058 -47.59765625 12.0625 C-45.06153185 11.31350343 -42.69400716 10.52409249 -40.2421875 9.5703125 C-35.27915882 7.66491214 -30.18335326 6.28740443 -25.0625 4.875 C-23.17755073 4.3545763 -21.29338672 3.83129701 -19.41015625 3.3046875 C-18.58652588 3.07765137 -17.76289551 2.85061523 -16.91430664 2.61669922 C-15.01267319 2.16474679 -15.01267319 2.16474679 -14 1 C-12.40792179 0.57660579 -10.80042427 0.21033711 -9.1875 -0.125 C-8.31480469 -0.31320312 -7.44210938 -0.50140625 -6.54296875 -0.6953125 C-4.01036024 -0.99875868 -2.39920842 -0.79414358 0 0 Z " fill="#707070" transform="translate(2568,335)"/>
<path d="M0 0 C0.33 0 0.66 0 1 0 C1.20091353 5.42466537 0.70793846 10.20857439 -0.46484375 15.5078125 C-2.01081792 22.70731266 -2.32746156 29.75940226 -2.60546875 37.09570312 C-2.64285156 37.96775391 -2.68023438 38.83980469 -2.71875 39.73828125 C-2.74904297 40.53274658 -2.77933594 41.32721191 -2.81054688 42.14575195 C-3 44 -3 44 -4 45 C-4.12337174 46.84031989 -4.17791308 48.68529411 -4.20532227 50.52954102 C-4.22526749 51.71068985 -4.24521271 52.89183868 -4.26576233 54.10877991 C-4.28247482 55.3941716 -4.29918732 56.67956329 -4.31640625 58.00390625 C-4.33718735 59.31205795 -4.35796844 60.62020966 -4.37937927 61.96800232 C-4.434663 65.45155447 -4.48404431 68.9351666 -4.53222656 72.41882324 C-4.58239574 75.9713273 -4.63810567 79.5237439 -4.69335938 83.07617188 C-4.80101791 90.05070546 -4.90244567 97.02531798 -5 104 C-5.33 104 -5.66 104 -6 104 C-6.0703009 95.10547489 -6.12320937 86.21104909 -6.15543652 77.31630421 C-6.17092374 73.18366824 -6.19184097 69.0512258 -6.22631836 64.91870117 C-6.40566143 42.83363128 -6.24637997 21.39717392 0 0 Z " fill="#8C8C8C" transform="translate(1069,363)"/>
<path d="M0 0 C6.88722267 1.66243306 9.8957282 4.22603581 14 10 C18.6253764 18.43055524 18.45396409 26.65590589 18 36 C17.34 36 16.68 36 16 36 C16 30.72 16 25.44 16 20 C15.01 20 14.02 20 13 20 C13 18.68 13 17.36 13 16 C12.01 15.67 11.02 15.34 10 15 C9.32558869 13.3364521 8.6599679 11.66933058 8 10 C5.66132095 7.28411465 4.43018282 6.14339427 1 5 C0.67 3.35 0.34 1.7 0 0 Z " fill="#4F4F4E" transform="translate(1148,340)"/>
<path d="M0 0 C1.32 0 2.64 0 4 0 C3.67 6.6 3.34 13.2 3 20 C3.66 20 4.32 20 5 20 C5 21.98 5 23.96 5 26 C5.66 26 6.32 26 7 26 C7.33 27.32 7.66 28.64 8 30 C8.66 30 9.32 30 10 30 C10 30.99 10 31.98 10 33 C10.66 33.33 11.32 33.66 12 34 C9.42468508 33.65198447 7.45167104 33.29035995 5.25 31.875 C3.38840818 29.08261228 3.31030802 26.28926502 3 23 C2.01 23 1.02 23 0 23 C-2.18768843 15.72506783 -1.34350823 7.38929527 0 0 Z " fill="#A7A4A2" transform="translate(2125,501)"/>
<path d="M0 0 C2.475 0.495 2.475 0.495 5 1 C1.96474514 3.02350324 0.80573798 3.32124018 -2.6875 3.625 C-3.49574219 3.69976562 -4.30398437 3.77453125 -5.13671875 3.8515625 C-5.75160156 3.90054687 -6.36648437 3.94953125 -7 4 C-7 4.66 -7 5.32 -7 6 C-7.74765625 6.12117188 -8.4953125 6.24234375 -9.265625 6.3671875 C-10.25046875 6.53476562 -11.2353125 6.70234375 -12.25 6.875 C-13.22453125 7.03742188 -14.1990625 7.19984375 -15.203125 7.3671875 C-17.95873612 7.87364623 -17.95873612 7.87364623 -20.125 9.0625 C-23.02502769 10.51251384 -25.81959299 10.12232335 -29 10 C-28.67 10.99 -28.34 11.98 -28 13 C-28.66 13 -29.32 13 -30 13 C-30 11.68 -30 10.36 -30 9 C-21.27881584 4.84705516 -11.61467319 1.96618039 -2 1 C-1.34 1.33 -0.68 1.66 0 2 C0 1.34 0 0.68 0 0 Z " fill="#484847" transform="translate(2533,344)"/>
<path d="M0 0 C3 0 3 0 4.625 1.5 C5.07875 1.995 5.5325 2.49 6 3 C6.33 3 6.66 3 7 3 C8.10941367 8.32867983 8.11548069 13.46281855 8.0625 18.875 C8.05798828 19.75414062 8.05347656 20.63328125 8.04882812 21.5390625 C8.03712337 23.69273803 8.01919069 25.84637817 8 28 C7.34 28 6.68 28 6 28 C5.67 29.32 5.34 30.64 5 32 C4.34 32 3.68 32 3 32 C2.67 32.99 2.34 33.98 2 35 C1.34 35 0.68 35 0 35 C0 34.34 0 33.68 0 33 C0.66 33 1.32 33 2 33 C2 32.01 2 31.02 2 30 C2.99 30 3.98 30 5 30 C5 22.41 5 14.82 5 7 C4.34 7 3.68 7 3 7 C2.01 4.69 1.02 2.38 0 0 Z " fill="#8A8989" transform="translate(2165,496)"/>
<path d="M0 0 C10.97005289 -0.79142666 20.30267229 1.9411549 30 7 C30 7.66 30 8.32 30 9 C30.66 9.33 31.32 9.66 32 10 C31.01 10 30.02 10 29 10 C29 9.34 29 8.68 29 8 C27.948125 7.87625 26.89625 7.7525 25.8125 7.625 C22 7 22 7 19.5625 5.9375 C15.94345335 4.61345854 12.84195003 4.86976441 9 5 C9 4.01 9 3.02 9 2 C7.02 2 5.04 2 3 2 C3 3.65 3 5.3 3 7 C0 3.375 0 3.375 0 0 Z " fill="#515150" transform="translate(1116,330)"/>
<path d="M0 0 C-0.33 1.32 -0.66 2.64 -1 4 C-1.99 4 -2.98 4 -4 4 C-4.33 8.95 -4.66 13.9 -5 19 C-5.33 19 -5.66 19 -6 19 C-6.103125 17.741875 -6.20625 16.48375 -6.3125 15.1875 C-6.72721641 11.66550539 -7.36281821 10.39743799 -10 8 C-9.6875 5.8125 -9.6875 5.8125 -9 4 C-10.65 3.67 -12.3 3.34 -14 3 C-9.18448679 0.42026078 -5.47161276 -0.12435484 0 0 Z " fill="#E6E4E4" transform="translate(2178,467)"/>
<path d="M0 0 C0.33 0 0.66 0 1 0 C1.31563182 5.26053037 0.66590937 8.44573816 -2 13 C-2.66 13 -3.32 13 -4 13 C-4 14.32 -4 15.64 -4 17 C-4.66 17 -5.32 17 -6 17 C-5.979375 18.11375 -5.95875 19.2275 -5.9375 20.375 C-6 24 -6 24 -7 26 C-7.22467831 27.53668865 -7.40796805 29.07968054 -7.5625 30.625 C-7.64628906 31.44226563 -7.73007813 32.25953125 -7.81640625 33.1015625 C-7.87699219 33.72804688 -7.93757813 34.35453125 -8 35 C-10 33 -10 33 -10.1953125 29.9609375 C-10.17210937 28.77757812 -10.14890625 27.59421875 -10.125 26.375 C-10.10695313 25.18648438 -10.08890625 23.99796875 -10.0703125 22.7734375 C-10.04710937 21.85820312 -10.02390625 20.94296875 -10 20 C-9.34 20 -8.68 20 -8 20 C-8 18.68 -8 17.36 -8 16 C-7.34 16 -6.68 16 -6 16 C-5.67 14.02 -5.34 12.04 -5 10 C-4.01 9.67 -3.02 9.34 -2 9 C-1.19436362 6.89415562 -1.19436362 6.89415562 -0.8125 4.4375 C-0.57466797 3.19806641 -0.57466797 3.19806641 -0.33203125 1.93359375 C-0.22246094 1.29550781 -0.11289063 0.65742188 0 0 Z " fill="#595959" transform="translate(1120,341)"/>
<path d="M0 0 C0.99 0.33 1.98 0.66 3 1 C2.34 1 1.68 1 1 1 C1 4.63 1 8.26 1 12 C-0.32 12 -1.64 12 -3 12 C-2.979375 13.11375 -2.95875 14.2275 -2.9375 15.375 C-3 19 -3 19 -4 21 C-4.66 21 -5.32 21 -6 21 C-5.67 16.71 -5.34 12.42 -5 8 C-4.34 8 -3.68 8 -3 8 C-2.67 6.35 -2.34 4.7 -2 3 C-1.34 3 -0.68 3 0 3 C0 2.01 0 1.02 0 0 Z " fill="#B7B1AE" transform="translate(2128,489)"/>
<path d="M0 0 C0 3 0 3 -1.875 5.125 C-4.84636659 7.74679405 -6.41418264 8.12716832 -10.28125 8.1328125 C-11.54388672 8.13474609 -11.54388672 8.13474609 -12.83203125 8.13671875 C-14.15267578 8.13091797 -14.15267578 8.13091797 -15.5 8.125 C-16.38042969 8.12886719 -17.26085938 8.13273438 -18.16796875 8.13671875 C-19.00972656 8.13542969 -19.85148437 8.13414062 -20.71875 8.1328125 C-21.49154297 8.13168457 -22.26433594 8.13055664 -23.06054688 8.12939453 C-25 8 -25 8 -27 7 C-27 6.01 -27 5.02 -27 4 C-26.01 4 -25.02 4 -24 4 C-24 4.66 -24 5.32 -24 6 C-21.95840905 6.0272616 -19.91671037 6.04651345 -17.875 6.0625 C-16.16957031 6.07990234 -16.16957031 6.07990234 -14.4296875 6.09765625 C-11.1870844 6.005327 -8.18067388 5.61389906 -5 5 C-5 4.01 -5 3.02 -5 2 C-3.35 1.34 -1.7 0.68 0 0 Z " fill="#646362" transform="translate(2164,531)"/>
<path d="M0 0 C3.55149146 3.55149146 2.36937236 8.94399448 2.375 13.75 C2.39949219 14.83539062 2.42398438 15.92078125 2.44921875 17.0390625 C2.4720293 23.25873886 2.36158396 27.3627769 -2 32 C-2.66 32 -3.32 32 -4 32 C-4 33.32 -4 34.64 -4 36 C-5.65 36 -7.3 36 -9 36 C-7.49663014 32.17324037 -5.16477592 30.51559112 -2 28 C-1.67 27.01 -1.34 26.02 -1 25 C-0.34 25 0.32 25 1 25 C0.67 16.75 0.34 8.5 0 0 Z " fill="#D7D6D6" transform="translate(2172,499)"/>
<path d="M0 0 C0.66 0.33 1.32 0.66 2 1 C1.26708288 2.1774734 0.51296199 3.34176854 -0.25 4.5 C-0.87648438 5.47453125 -0.87648438 5.47453125 -1.515625 6.46875 C-2.00546875 6.9740625 -2.4953125 7.479375 -3 8 C-4.32 8 -5.64 8 -7 8 C-7 8.99 -7 9.98 -7 11 C-11.32564205 12.58255197 -15.428721 13.45144652 -20 14 C-15.69230769 10.06153846 -15.69230769 10.06153846 -12.1875 9.75 C-11.465625 9.8325 -10.74375 9.915 -10 10 C-10 8.68 -10 7.36 -10 6 C-9.278125 6.12375 -8.55625 6.2475 -7.8125 6.375 C-4.54986264 5.93998169 -4.1958004 5.44438849 -2.1875 3 C-1.465625 2.01 -0.74375 1.02 0 0 Z " fill="#E7E6E5" transform="translate(2178,525)"/>
<path d="M0 0 C0.66 0 1.32 0 2 0 C4.06723714 3.10085571 4.24497423 3.72931681 4.1953125 7.23046875 C4.18886719 8.03291016 4.18242188 8.83535156 4.17578125 9.66210938 C4.15902344 10.49548828 4.14226562 11.32886719 4.125 12.1875 C4.11597656 13.03248047 4.10695313 13.87746094 4.09765625 14.74804688 C4.07410703 16.83215243 4.03823647 18.91611217 4 21 C3.01 21.33 2.02 21.66 1 22 C0.67 22.99 0.34 23.98 0 25 C0 23.35 0 21.7 0 20 C0.66 20 1.32 20 2 20 C1.85834107 17.60385425 1.71181159 15.20817103 1.5625 12.8125 C1.52318359 12.13896484 1.48386719 11.46542969 1.44335938 10.77148438 C1.21072435 7.10300898 0.82792989 3.58305794 0 0 Z " fill="#BFBFBF" transform="translate(1164,356)"/>
<path d="M0 0 C1.07765625 0.01804687 2.1553125 0.03609375 3.265625 0.0546875 C4.49539063 0.08949219 4.49539063 0.08949219 5.75 0.125 C5.83090971 1.74918745 5.88914995 3.37451745 5.9375 5 C5.98970703 6.35738281 5.98970703 6.35738281 6.04296875 7.7421875 C5.94628906 8.52851563 5.84960938 9.31484375 5.75 10.125 C4.76 10.785 3.77 11.445 2.75 12.125 C1.76 11.795 0.77 11.465 -0.25 11.125 C0.41 10.795 1.07 10.465 1.75 10.125 C2.21651207 7.99923218 2.21651207 7.99923218 2.375 5.5625 C2.44976563 4.73621094 2.52453125 3.90992188 2.6015625 3.05859375 C2.65054687 2.42050781 2.69953125 1.78242188 2.75 1.125 C2.09 1.29 1.43 1.455 0.75 1.625 C-2.98099794 2.24683299 -6.46873378 2.18908926 -10.25 2.125 C-6.7733662 -0.01836161 -4.03770805 -0.08777626 0 0 Z " fill="#D3D3D3" transform="translate(1083.25,328.875)"/>
<path d="M0 0 C0.99 0.33 1.98 0.66 3 1 C2.57847656 1.60328125 2.15695313 2.2065625 1.72265625 2.828125 C1.17480469 3.62734375 0.62695312 4.4265625 0.0625 5.25 C-0.48277344 6.03890625 -1.02804688 6.8278125 -1.58984375 7.640625 C-2.89622441 9.82636993 -3.54980511 11.5153801 -4 14 C-4.66 14 -5.32 14 -6 14 C-6 10.7 -6 7.4 -6 4 C-4.02 3.67 -2.04 3.34 0 3 C0 2.01 0 1.02 0 0 Z " fill="#ACA69F" transform="translate(2135,486)"/>
<path d="M0 0 C0 0.66 0 1.32 0 2 C-1.98 2.66 -3.96 3.32 -6 4 C-6 4.66 -6 5.32 -6 6 C-6.66 6 -7.32 6 -8 6 C-8 6.66 -8 7.32 -8 8 C-8.66 8 -9.32 8 -10 8 C-10.33 8.99 -10.66 9.98 -11 11 C-11.66 10.67 -12.32 10.34 -13 10 C-13 10.99 -13 11.98 -13 13 C-14.32 13 -15.64 13 -17 13 C-16.67 12.01 -16.34 11.02 -16 10 C-15.34 10 -14.68 10 -14 10 C-13.67 9.01 -13.34 8.02 -13 7 C-9.48658922 3.78773871 -4.96344876 0 0 0 Z " fill="#CDCBC9" transform="translate(2148,476)"/>
<path d="M0 0 C0 0.33 0 0.66 0 1 C-4.1196377 2.29243536 -7.66831683 3.26252625 -12 3 C-12 3.66 -12 4.32 -12 5 C-19.5 7.125 -19.5 7.125 -24 6 C-21.36 5.34 -18.72 4.68 -16 4 C-16 3.34 -16 2.68 -16 2 C-10.42932723 0.40837921 -5.78898419 -0.20674944 0 0 Z " fill="#676666" transform="translate(1081,331)"/>
<path d="M0 0 C0.99 0 1.98 0 3 0 C3.33 2.31 3.66 4.62 4 7 C4.99 7.33 5.98 7.66 7 8 C7 8.66 7 9.32 7 10 C8.65 10.33 10.3 10.66 12 11 C12 11.99 12 12.98 12 14 C9.04801969 13.36743279 6.55376831 12.63101999 4 11 C2.734375 8.65234375 2.734375 8.65234375 1.75 5.9375 C1.41484375 5.03902344 1.0796875 4.14054688 0.734375 3.21484375 C0 1 0 1 0 0 Z " fill="#B7B2B0" transform="translate(2125,524)"/>
<path d="M0 0 C1.98 0 3.96 0 6 0 C6 3.96 6 7.92 6 12 C6.66 12 7.32 12 8 12 C8 12.99 8 13.98 8 15 C7.01 15 6.02 15 5 15 C2.79191919 9.80451575 3.06597276 6.41735797 4 1 C2.68 0.67 1.36 0.34 0 0 Z " fill="#444444" transform="translate(2154,475)"/>
<path d="M0 0 C0.66 0 1.32 0 2 0 C2 1.98 2 3.96 2 6 C2.66 6 3.32 6 4 6 C4.33 7.32 4.66 8.64 5 10 C5.66 10 6.32 10 7 10 C7 10.99 7 11.98 7 13 C7.66 13.33 8.32 13.66 9 14 C5.29146208 13.49884623 3.31246548 12.99569392 1 10 C0.48828125 7.51953125 0.48828125 7.51953125 0.3125 4.8125 C0.24675781 3.91144531 0.18101562 3.01039063 0.11328125 2.08203125 C0.07589844 1.39496094 0.03851562 0.70789063 0 0 Z " fill="#605B57" transform="translate(2128,521)"/>
<path d="M0 0 C0.66 0 1.32 0 2 0 C1.67 7.26 1.34 14.52 1 22 C0.67 22 0.34 22 0 22 C0 20.02 0 18.04 0 16 C-0.66 16 -1.32 16 -2 16 C-2 14.02 -2 12.04 -2 10 C-1.34 10 -0.68 10 0 10 C0 6.7 0 3.4 0 0 Z " fill="#8D8C8B" transform="translate(2127,501)"/>
<path d="M0 0 C0.66 0.33 1.32 0.66 2 1 C-2.95 5.95 -7.9 10.9 -13 16 C-13 10.79628205 -8.49504984 7.5790344 -5 4 C-3.37707762 2.6137538 -1.7331451 1.24569804 0 0 Z " fill="#222221" transform="translate(130,347)"/>
<path d="M0 0 C2.97 0 5.94 0 9 0 C8.67 2.64 8.34 5.28 8 8 C7.01 8 6.02 8 5 8 C4 5 4 5 5 2 C3.35 1.67 1.7 1.34 0 1 C0 0.67 0 0.34 0 0 Z " fill="#CECBCA" transform="translate(2164,469)"/>
<path d="M0 0 C-4.33664919 3.11696661 -7.80408388 3.55966813 -13 4 C-13 4.66 -13 5.32 -13 6 C-14.32 6 -15.64 6 -17 6 C-17 5.34 -17 4.68 -17 4 C-14.92227529 3.13227971 -12.83756823 2.28126381 -10.75 1.4375 C-9.58984375 0.96183594 -8.4296875 0.48617188 -7.234375 -0.00390625 C-4.13733356 -0.95770524 -2.92678299 -1.20983356 0 0 Z " fill="#414241" transform="translate(2568,335)"/>
<path d="M0 0 C0.66 0 1.32 0 2 0 C2 0.99 2 1.98 2 3 C2.93585937 3.12181641 2.93585937 3.12181641 3.890625 3.24609375 C6 4 6 4 7.046875 5.84765625 C7.27890625 6.57855469 7.5109375 7.30945313 7.75 8.0625 C7.99234375 8.79597656 8.2346875 9.52945313 8.484375 10.28515625 C8.65453125 10.85105469 8.8246875 11.41695312 9 12 C8.34 12 7.68 12 7 12 C6.67 11.34 6.34 10.68 6 10 C5.01 9.67 4.02 9.34 3 9 C2.05078125 6.93359375 2.05078125 6.93359375 1.3125 4.4375 C1.06113281 3.61121094 0.80976563 2.78492188 0.55078125 1.93359375 C0.36902344 1.29550781 0.18726562 0.65742187 0 0 Z " fill="#D4CFCE" transform="translate(2120,521)"/>
<path d="M0 0 C4.52323848 1.09181619 7.18577862 1.89372942 10.1875 5.5625 C10.71730469 6.20316406 11.24710938 6.84382813 11.79296875 7.50390625 C12.19128906 7.99761719 12.58960938 8.49132812 13 9 C9.89448334 9 8.64738916 8.4606285 6 7 C6 6.01 6 5.02 6 4 C4.02 3.34 2.04 2.68 0 2 C0 1.34 0 0.68 0 0 Z " fill="#7C7C7C" transform="translate(1148,340)"/>
<path d="M0 0 C4.56454251 0.54339792 7.9728176 1.79463821 12 4 C12 4.66 12 5.32 12 6 C12.66 6.33 13.32 6.66 14 7 C13.01 7 12.02 7 11 7 C11 6.34 11 5.68 11 5 C9.39125 4.814375 9.39125 4.814375 7.75 4.625 C4.62136385 4.10356064 2.66519576 3.59911746 0 2 C0 1.34 0 0.68 0 0 Z " fill="#595859" transform="translate(1134,333)"/>
<path d="M0 0 C0.33 1.32 0.66 2.64 1 4 C-1.97 4 -4.94 4 -8 4 C-8 4.66 -8 5.32 -8 6 C-9.32 5.67 -10.64 5.34 -12 5 C-10.75264433 4.3490741 -9.50198168 3.70448331 -8.25 3.0625 C-7.55390625 2.70285156 -6.8578125 2.34320313 -6.140625 1.97265625 C-4.09775567 1.04441818 -2.18884624 0.46833422 0 0 Z " fill="#CCCBC9" transform="translate(2160,470)"/>
<path d="M0 0 C0.33 0 0.66 0 1 0 C1.31563182 5.26053037 0.66590937 8.44573816 -2 13 C-2.99 13 -3.98 13 -5 13 C-5.33 13.66 -5.66 14.32 -6 15 C-5.67 13.35 -5.34 11.7 -5 10 C-4.01 9.67 -3.02 9.34 -2 9 C-1.19436362 6.89415562 -1.19436362 6.89415562 -0.8125 4.4375 C-0.65394531 3.61121094 -0.49539063 2.78492188 -0.33203125 1.93359375 C-0.22246094 1.29550781 -0.11289063 0.65742188 0 0 Z " fill="#696969" transform="translate(1120,341)"/>
<path d="M0 0 C0.33 0 0.66 0 1 0 C1.33266291 6.20970773 0.45029331 10.28264895 -2 16 C-3.3805087 12.23331402 -2.59568159 9.55210827 -1.5625 5.75 C-1.27503906 4.67234375 -0.98757813 3.5946875 -0.69140625 2.484375 C-0.46324219 1.66453125 -0.23507812 0.8446875 0 0 Z " fill="#A4A3A3" transform="translate(1069,363)"/>
<path d="M0 0 C-2.64738916 1.4606285 -3.89448334 2 -7 2 C-7 2.99 -7 3.98 -7 5 C-9.64 5.33 -12.28 5.66 -15 6 C-13.6875 4.5 -13.6875 4.5 -12 3 C-11.01 3 -10.02 3 -9 3 C-9 2.34 -9 1.68 -9 1 C-5.57367167 -0.61798838 -3.61944899 -1.34053666 0 0 Z " fill="#686867" transform="translate(2558,337)"/>
<path d="M0 0 C0.99 0.33 1.98 0.66 3 1 C2.34 1 1.68 1 1 1 C0.87625 1.721875 0.7525 2.44375 0.625 3.1875 C0.0095069 5.95721894 -0.88444374 8.3970354 -2 11 C-2.99 11 -3.98 11 -5 11 C-5 10.01 -5 9.02 -5 8 C-4.34 8 -3.68 8 -3 8 C-2.67 6.35 -2.34 4.7 -2 3 C-1.34 3 -0.68 3 0 3 C0 2.01 0 1.02 0 0 Z " fill="#D5D1CD" transform="translate(2128,489)"/>
<path d="M0 0 C0.99 0.33 1.98 0.66 3 1 C3 1.99 3 2.98 3 4 C3.99 4.33 4.98 4.66 6 5 C6.33 6.65 6.66 8.3 7 10 C6.01 10 5.02 10 4 10 C4 8.68 4 7.36 4 6 C3.01 5.67 2.02 5.34 1 5 C0.67 3.35 0.34 1.7 0 0 Z " fill="#212121" transform="translate(1157,350)"/>
<path d="M0 0 C0.99 0.33 1.98 0.66 3 1 C2.34 1 1.68 1 1 1 C1 1.99 1 2.98 1 4 C1.66 4 2.32 4 3 4 C4.03159626 7.09478879 3.97482862 8.52631393 3.5625 11.6875 C3.46066406 12.49574219 3.35882812 13.30398438 3.25390625 14.13671875 C3.17011719 14.75160156 3.08632812 15.36648438 3 16 C2.67 16 2.34 16 2 16 C0.80911014 10.61972975 -0.2919519 5.54708616 0 0 Z " fill="#1F1F1F" transform="translate(1119,332)"/>
<path d="M0 0 C0.33 0.99 0.66 1.98 1 3 C0.01 3.33 -0.98 3.66 -2 4 C-2 5.32 -2 6.64 -2 8 C-3.65 8 -5.3 8 -7 8 C-5.50902342 4.2047869 -3.24299151 2.38957269 0 0 Z " fill="#C3C1C1" transform="translate(2170,527)"/>
<path d="M0 0 C0.66 0 1.32 0 2 0 C4.35119399 3.52679099 4.21443452 5.02879485 4.125 9.1875 C4.10695313 10.27417969 4.08890625 11.36085938 4.0703125 12.48046875 C4.03550781 13.72763672 4.03550781 13.72763672 4 15 C3.67 15 3.34 15 3 15 C3 11.7 3 8.4 3 5 C2.34 5 1.68 5 1 5 C0.67 3.35 0.34 1.7 0 0 Z " fill="#D4D5D4" transform="translate(1164,356)"/>
<path d="M0 0 C0.33 0 0.66 0 1 0 C1.33 2.97 1.66 5.94 2 9 C1.01 9 0.02 9 -1 9 C-1.125 2.25 -1.125 2.25 0 0 Z " fill="#BAB2AF" transform="translate(2123,515)"/>
<path d="M0 0 C0.66 0.33 1.32 0.66 2 1 C0.515 4.465 0.515 4.465 -1 8 C-1.66 8 -2.32 8 -3 8 C-3 5.69 -3 3.38 -3 1 C-2.01 0.67 -1.02 0.34 0 0 Z " fill="#8E8985" transform="translate(2132,492)"/>
<path d="M0 0 C1.32 0 2.64 0 4 0 C3.67 0.99 3.34 1.98 3 3 C2.34 2.67 1.68 2.34 1 2 C1 2.99 1 3.98 1 5 C-0.32 5 -1.64 5 -3 5 C-2.67 4.01 -2.34 3.02 -2 2 C-1.34 2 -0.68 2 0 2 C0 1.34 0 0.68 0 0 Z " fill="#C3BDB8" transform="translate(2134,484)"/>
<path d="M0 0 C1.2380014 3.57644848 0.74926071 6.33694766 0 10 C-0.66 10 -1.32 10 -2 10 C-2 7.36 -2 4.72 -2 2 C-1.34 2 -0.68 2 0 2 C0 1.34 0 0.68 0 0 Z " fill="#BFBFBF" transform="translate(1067,377)"/>
<path d="M0 0 C0 0.66 0 1.32 0 2 C-8.03571429 4.27678571 -8.03571429 4.27678571 -12 3 C-10.75336669 2.49166409 -9.50250613 1.99368855 -8.25 1.5 C-7.55390625 1.2215625 -6.8578125 0.943125 -6.140625 0.65625 C-4 0 -4 0 0 0 Z " fill="#3A3A3A" transform="translate(1069,334)"/>
<path d="M0 0 C0.99 0 1.98 0 3 0 C3 0.66 3 1.32 3 2 C5.31 2.33 7.62 2.66 10 3 C10 3.33 10 3.66 10 4 C2.25 4.125 2.25 4.125 0 3 C0 2.01 0 1.02 0 0 Z " fill="#767573" transform="translate(2137,535)"/>
<path d="M0 0 C1.98 0.66 3.96 1.32 6 2 C6 2.99 6 3.98 6 5 C6.66 5.33 7.32 5.66 8 6 C5.21788056 5.62403791 3.4120716 5.32681541 1.1875 3.5625 C0 2 0 2 0 0 Z " fill="#898581" transform="translate(2129,529)"/>
</svg>
